<!DOCTYPE svg PUBLIC "-//W3C//DTD SVG 20010904//EN" "http://www.w3.org/TR/2001/REC-SVG-20010904/DTD/svg10.dtd">
<svg version="1.0" xmlns="http://www.w3.org/2000/svg" width="1000px" height="1000px" viewBox="0 0 10000 10000" preserveAspectRatio="xMidYMid meet">
<g id="layer101" fill="#040404" stroke="none">
<path d="M0 5000 l0 -5000 5000 0 5000 0 0 5000 0 5000 -5000 0 -5000 0 0 -5000z"/>
</g>
<g id="layer102" fill="#01ffe9" stroke="none">
<path d="M0 5000 l0 -5000 5000 0 5000 0 0 5000 0 5000 -5000 0 -5000 0 0 -5000z m5543 4255 c119 -16 343 -78 478 -133 93 -39 160 -62 179 -62 37 0 137 -110 155 -170 4 -14 25 -65 47 -114 33 -71 46 -117 64 -230 41 -254 41 -252 133 -441 49 -99 124 -252 167 -340 118 -245 236 -454 287 -512 17 -19 20 -43 24 -250 4 -186 2 -241 -11 -298 -43 -188 -43 -181 -4 -270 19 -44 52 -131 72 -193 20 -62 49 -144 65 -181 60 -141 71 -204 71 -404 0 -147 -4 -201 -20 -276 -27 -122 -47 -158 -115 -211 l-57 -44 -103 -1 c-57 0 -107 -4 -112 -9 -4 -4 -7 -49 -5 -99 4 -110 -9 -169 -58 -267 -38 -75 -70 -111 -145 -166 -22 -16 -78 -62 -123 -101 -46 -40 -99 -77 -117 -82 -19 -5 -79 -5 -143 -1 -103 8 -114 11 -196 54 -48 25 -92 46 -99 46 -7 0 -39 14 -71 30 -75 38 -123 40 -132 5 -8 -30 11 -171 38 -285 11 -47 31 -132 43 -190 27 -121 46 -184 148 -480 110 -318 121 -347 166 -443 23 -48 41 -92 41 -98 0 -5 33 -78 74 -162 114 -233 153 -327 214 -512 16 -49 47 -133 67 -185 38 -94 67 -186 107 -330 17 -63 19 -95 15 -200 -3 -69 -12 -156 -22 -195 -22 -92 -89 -219 -141 -268 -24 -22 -45 -50 -48 -61 -3 -13 -30 -34 -65 -53 -55 -30 -67 -33 -148 -33 -102 0 -169 17 -263 66 -93 49 -169 112 -224 185 -25 35 -66 89 -90 119 -45 56 -211 383 -300 590 -28 63 -65 142 -84 175 -73 128 -112 216 -150 340 -22 72 -55 171 -72 220 -17 50 -44 126 -60 170 -15 44 -46 123 -69 175 -39 89 -110 282 -202 550 -22 63 -48 133 -59 155 -17 37 -57 135 -100 245 -32 82 -89 197 -104 209 -20 17 -53 -39 -61 -104 -11 -93 18 -883 44 -1173 6 -68 12 -343 12 -611 2 -526 -2 -578 -58 -866 -21 -113 -31 -139 -68 -200 -23 -38 -50 -90 -59 -115 -28 -74 -123 -190 -186 -227 -30 -17 -68 -42 -85 -55 -26 -20 -40 -23 -121 -23 l-92 0 -71 49 c-78 53 -142 120 -173 180 -35 68 -153 564 -203 851 -3 17 -10 111 -16 210 -5 99 -16 236 -24 305 -8 69 -15 170 -15 225 -1 55 -5 147 -10 205 -6 58 -17 182 -25 277 -8 94 -19 191 -24 215 -5 23 -12 111 -16 193 -5 131 -66 984 -95 1335 -5 69 -21 294 -35 500 -32 480 -48 596 -147 1045 -17 77 -22 356 -9 511 15 178 69 398 126 514 12 25 25 65 29 89 4 24 22 73 41 109 19 36 35 70 35 76 0 6 12 28 26 49 24 36 94 197 94 218 0 5 20 63 44 128 45 121 70 207 91 321 13 70 37 167 87 353 33 122 60 168 128 217 37 26 274 86 371 94 84 6 228 29 329 51 36 8 117 24 180 35 63 12 124 23 135 26 11 3 144 7 295 10 151 4 277 8 279 10 10 10 200 3 304 -11z"/>
</g>
<g id="layer103" fill="#30fbef" stroke="none">
<path d="M0 5000 l0 -5000 5000 0 5000 0 0 5000 0 5000 -5000 0 -5000 0 0 -5000z m5543 4255 c119 -16 343 -78 478 -133 93 -39 160 -62 179 -62 24 0 88 -57 126 -114 41 -58 38 -26 -3 37 -13 22 -22 41 -20 43 2 3 35 -7 72 -21 37 -14 77 -25 89 -25 12 0 36 -15 53 -32 58 -62 63 -77 63 -166 0 -53 6 -96 16 -120 9 -20 24 -83 34 -139 17 -97 49 -191 91 -275 10 -20 46 -110 79 -200 94 -254 99 -266 165 -393 81 -155 124 -230 182 -317 l48 -71 8 -191 c9 -217 -1 -320 -40 -433 -28 -82 -28 -83 29 -203 23 -47 46 -103 53 -125 7 -22 36 -87 63 -145 82 -173 92 -217 92 -384 0 -230 -49 -515 -97 -568 -21 -23 -50 -23 -62 1 -8 14 -6 33 5 68 23 74 53 353 54 499 0 125 -2 136 -31 205 -68 161 -77 180 -92 197 -9 10 -26 47 -37 82 -11 36 -30 81 -41 100 -11 19 -17 26 -13 15 3 -11 24 -73 46 -139 21 -65 52 -149 67 -186 60 -140 71 -203 71 -403 0 -147 -4 -201 -20 -276 -27 -121 -47 -159 -112 -209 -48 -37 -62 -42 -125 -48 l-72 -7 16 -23 c12 -19 14 -47 11 -136 -3 -95 -9 -124 -33 -183 -45 -112 -88 -176 -173 -259 -127 -124 -238 -182 -272 -141 -21 25 -6 48 66 99 38 28 97 78 130 111 73 75 102 113 49 64 -22 -20 -58 -49 -80 -65 -22 -16 -78 -62 -123 -101 -46 -40 -99 -77 -117 -82 -19 -5 -79 -5 -143 -1 -103 8 -114 11 -196 54 -48 25 -94 46 -102 46 -8 0 -26 7 -40 17 l-25 16 20 -34 c11 -19 27 -78 36 -134 20 -129 31 -180 65 -290 15 -49 46 -153 69 -231 91 -309 239 -691 376 -969 30 -60 61 -135 69 -165 18 -64 86 -257 111 -315 57 -131 95 -268 120 -440 30 -202 29 -288 -5 -455 -34 -161 -50 -200 -101 -250 -43 -41 -89 -111 -89 -134 0 -19 -34 -46 -56 -46 -13 0 -29 9 -36 20 -12 19 -14 18 -74 -15 -58 -33 -68 -35 -151 -35 -102 0 -169 17 -263 66 -93 49 -169 112 -224 185 -25 35 -66 89 -90 119 -45 56 -211 383 -300 590 -28 63 -65 142 -84 175 -73 128 -112 216 -150 340 -22 72 -55 171 -72 220 -17 50 -44 126 -60 170 -15 44 -46 123 -69 175 -39 89 -110 282 -202 550 -22 63 -48 133 -59 155 -10 22 -32 75 -49 119 -17 43 -35 85 -39 92 -10 17 -5 -376 7 -581 11 -193 4 -1249 -10 -1465 -28 -433 -81 -642 -209 -820 -22 -30 -58 -82 -79 -115 -81 -123 -100 -141 -174 -171 -76 -31 -100 -27 -105 18 -3 25 -4 26 -33 11 -21 -11 -53 -14 -109 -12 -74 4 -81 6 -149 53 -78 53 -142 120 -173 180 -35 68 -153 564 -203 851 -3 17 -10 111 -16 210 -5 99 -16 236 -24 305 -8 69 -15 170 -15 225 -1 55 -5 147 -10 205 -6 58 -17 182 -25 277 -8 94 -19 191 -24 215 -5 23 -12 111 -16 193 -5 131 -66 984 -95 1335 -5 69 -21 294 -35 500 -32 480 -48 596 -147 1045 -17 77 -22 356 -9 511 15 178 69 398 126 514 12 25 25 65 29 89 4 24 22 73 41 109 19 36 35 70 35 76 0 6 12 28 26 49 24 36 94 197 94 218 0 5 20 63 44 128 45 121 70 207 91 321 13 70 37 167 87 353 33 122 60 168 128 217 37 26 274 86 371 94 84 6 228 29 329 51 36 8 117 24 180 35 63 12 124 23 135 26 11 3 144 7 295 10 151 4 277 8 279 10 10 10 200 3 304 -11z"/>
<path d="M6436 8705 c3 -11 17 -83 30 -160 34 -205 43 -250 59 -287 13 -31 14 -32 15 -7 0 34 -36 227 -49 262 -6 15 -15 53 -20 85 -5 32 -16 73 -25 92 -9 19 -13 26 -10 15z"/>
<path d="M6577 8150 c22 -41 72 -145 113 -230 76 -162 106 -215 65 -114 -14 32 -25 64 -25 69 -1 35 -83 221 -112 253 -18 20 -44 51 -56 67 -15 19 -9 2 15 -45z"/>
<path d="M7078 6835 c-4 -81 -14 -158 -27 -204 -12 -41 -19 -77 -16 -79 6 -6 8 2 34 110 17 67 21 111 19 195 l-3 108 -7 -130z"/>
<path d="M7066 6427 c3 -10 9 -15 12 -12 3 3 0 11 -7 18 -10 9 -11 8 -5 -6z"/>
<path d="M6863 5113 c4 -3 10 -3 14 0 3 4 0 7 -7 7 -7 0 -10 -3 -7 -7z"/>
<path d="M5777 4450 c3 -30 7 -57 9 -59 8 -9 2 75 -6 94 -6 13 -7 1 -3 -35z"/>
<path d="M5806 4275 c3 -16 11 -48 16 -70 6 -22 21 -87 33 -145 27 -121 46 -183 150 -485 122 -353 129 -371 133 -354 1 9 -18 77 -43 150 -72 206 -150 453 -196 619 -55 199 -107 358 -93 285z"/>
<path d="M4452 4217 c-12 -18 -23 -55 -27 -82 -12 -96 25 -1081 42 -1108 4 -6 10 -185 14 -397 7 -370 7 -367 2 85 -2 259 -8 529 -14 600 -5 72 -12 296 -15 499 -6 362 -5 369 15 397 11 15 17 30 12 34 -5 3 -18 -10 -29 -28z"/>
<path d="M6185 3106 c14 -32 25 -63 25 -68 0 -5 33 -77 74 -161 99 -202 143 -304 178 -412 34 -104 52 -153 104 -285 40 -103 72 -204 109 -345 13 -49 24 -81 24 -70 0 40 -26 161 -41 190 -8 17 -18 44 -22 60 -4 17 -35 109 -70 205 -35 96 -72 200 -81 230 -10 30 -28 78 -40 105 -12 28 -35 82 -50 120 -16 39 -56 124 -90 190 -34 66 -72 150 -84 187 -12 37 -31 78 -42 90 -16 19 -15 14 6 -36z"/>
<path d="M4483 2045 c0 -38 2 -53 4 -32 2 20 2 52 0 70 -2 17 -4 1 -4 -38z"/>
<path d="M4420 1461 c-26 -120 -23 -156 4 -58 13 48 31 177 24 177 -2 0 -14 -54 -28 -119z"/>
<path d="M6637 1366 c-10 -24 -33 -69 -52 -100 -22 -37 -27 -51 -15 -44 19 12 75 117 86 161 9 40 2 33 -19 -17z"/>
<path d="M4169 984 c-23 -25 -27 -33 -13 -26 18 9 61 62 51 62 -2 0 -19 -16 -38 -36z"/>
</g>
<g id="layer104" fill="#60f2ee" stroke="none">
<path d="M0 5000 l0 -5000 5000 0 5000 0 0 5000 0 5000 -5000 0 -5000 0 0 -5000z m5543 4255 c119 -16 343 -78 478 -133 97 -40 160 -62 182 -62 18 0 101 -77 129 -120 10 -14 17 -20 17 -14 1 6 -12 31 -29 55 -16 24 -30 47 -30 51 0 4 36 -6 81 -22 44 -17 88 -30 98 -30 10 0 39 -22 65 -50 48 -51 52 -63 47 -167 -1 -23 8 -68 19 -100 11 -32 27 -98 35 -148 16 -92 34 -147 90 -270 18 -38 56 -133 84 -210 28 -77 61 -165 73 -195 28 -74 133 -283 163 -328 14 -20 25 -40 25 -45 0 -4 28 -49 62 -100 l62 -92 9 -205 c9 -225 0 -342 -34 -419 -30 -69 -25 -108 31 -222 28 -56 50 -108 50 -116 0 -7 21 -57 47 -111 25 -53 59 -133 75 -177 26 -75 28 -90 28 -235 0 -200 -30 -427 -69 -520 -24 -59 -29 -65 -55 -65 -44 0 -53 24 -33 88 18 57 34 156 24 146 -4 -3 -13 -38 -22 -77 -20 -99 -44 -141 -107 -190 -46 -35 -63 -42 -119 -48 l-66 -6 13 -37 c32 -88 7 -240 -61 -379 -37 -74 -62 -109 -128 -175 -141 -143 -266 -205 -297 -148 -15 30 -4 46 63 90 34 22 96 75 137 117 l75 76 -63 -48 c-35 -27 -104 -84 -154 -126 -50 -43 -105 -82 -123 -87 -19 -5 -80 -5 -143 -1 -103 8 -114 11 -196 54 -48 25 -94 46 -102 46 -8 0 -27 8 -42 17 l-27 17 18 -21 c22 -25 42 -99 52 -185 7 -64 29 -160 65 -278 139 -465 162 -533 262 -775 90 -217 112 -268 170 -386 32 -64 64 -141 73 -170 19 -68 86 -261 109 -314 95 -216 153 -510 142 -718 -6 -124 -23 -218 -57 -327 -17 -51 -34 -78 -80 -128 -32 -34 -62 -75 -65 -90 -10 -41 -43 -72 -77 -72 -21 0 -30 6 -34 20 -5 19 -8 19 -68 -15 -59 -33 -69 -35 -152 -35 -102 0 -169 17 -263 66 -93 49 -169 112 -224 185 -25 35 -66 89 -90 119 -45 56 -211 383 -300 590 -28 63 -65 142 -84 175 -73 128 -112 216 -150 340 -22 72 -55 171 -72 220 -17 50 -44 126 -60 170 -15 44 -46 123 -69 175 -39 89 -110 282 -202 550 -22 63 -48 133 -59 155 -10 22 -32 75 -49 119 -17 43 -35 84 -39 92 -9 17 -4 -370 8 -571 11 -179 4 -1258 -10 -1510 -15 -265 -58 -511 -107 -605 -7 -14 -13 -33 -13 -42 0 -9 -4 -20 -10 -23 -5 -3 -26 -34 -45 -68 -20 -34 -54 -84 -76 -112 -22 -27 -53 -74 -69 -102 -17 -29 -34 -53 -39 -53 -5 0 -11 -8 -13 -18 -5 -19 -124 -72 -163 -72 -17 0 -29 8 -36 22 -9 22 -16 23 -113 23 l-104 0 -71 49 c-78 53 -142 120 -173 180 -35 68 -153 564 -203 851 -3 17 -10 111 -16 210 -5 99 -16 236 -24 305 -8 69 -15 170 -15 225 -1 55 -5 147 -10 205 -6 58 -17 182 -25 277 -8 94 -19 191 -24 215 -5 23 -12 111 -16 193 -5 131 -66 984 -95 1335 -5 69 -21 294 -35 500 -32 480 -48 596 -147 1045 -17 77 -22 356 -9 511 15 178 69 398 126 514 12 25 25 65 29 89 4 24 22 73 41 109 19 36 35 70 35 76 0 6 12 28 26 49 24 36 94 197 94 218 0 5 20 63 44 128 45 121 70 207 91 321 13 70 37 167 87 353 33 122 60 168 128 217 37 26 274 86 371 94 84 6 228 29 329 51 36 8 117 24 180 35 63 12 124 23 135 26 11 3 144 7 295 10 151 4 277 8 279 10 10 10 200 3 304 -11z"/>
<path d="M6440 8680 c0 -7 3 -10 7 -7 3 4 3 10 0 14 -4 3 -7 0 -7 -7z"/>
<path d="M6451 8644 c0 -11 3 -14 6 -6 3 7 2 16 -1 19 -3 4 -6 -2 -5 -13z"/>
<path d="M6461 8604 c-1 -21 37 -261 48 -300 17 -59 32 -77 25 -29 -16 115 -72 363 -73 329z"/>
<path d="M6642 8018 c50 -101 92 -185 95 -188 11 -11 -13 62 -51 161 -31 80 -52 119 -88 158 l-46 51 90 -182z"/>
<path d="M6741 7815 c0 -5 6 -21 14 -35 8 -14 14 -20 14 -15 0 6 -6 21 -14 35 -8 14 -14 21 -14 15z"/>
<path d="M7083 6875 c0 -44 2 -61 4 -37 2 23 2 59 0 80 -2 20 -4 1 -4 -43z"/>
<path d="M7071 6714 c0 -11 3 -14 6 -6 3 7 2 16 -1 19 -3 4 -6 -2 -5 -13z"/>
<path d="M7061 6674 c0 -11 3 -14 6 -6 3 7 2 16 -1 19 -3 4 -6 -2 -5 -13z"/>
<path d="M7050 6640 c0 -7 3 -10 7 -7 3 4 3 10 0 14 -4 3 -7 0 -7 -7z"/>
<path d="M7038 6587 c-3 -19 -2 -25 4 -19 6 6 8 18 6 28 -3 14 -5 12 -10 -9z"/>
<path d="M7101 6350 c-2 -11 71 -226 98 -290 60 -139 71 -203 72 -408 l2 -187 12 90 c7 50 14 149 14 221 1 114 -2 138 -22 190 -40 101 -80 187 -109 233 -15 25 -28 52 -28 60 -1 15 -38 101 -39 91z"/>
<path d="M5770 4480 c0 -7 3 -10 7 -7 3 4 3 10 0 14 -4 3 -7 0 -7 -7z"/>
<path d="M5782 4415 c0 -16 2 -22 5 -12 2 9 2 23 0 30 -3 6 -5 -1 -5 -18z"/>
<path d="M5810 4250 c0 -7 3 -10 7 -7 3 4 3 10 0 14 -4 3 -7 0 -7 -7z"/>
<path d="M4452 4218 c-11 -18 -23 -53 -27 -77 -9 -57 5 -432 16 -425 5 3 9 113 9 244 0 229 1 240 21 259 12 11 16 22 11 25 -6 3 -19 -9 -30 -26z"/>
<path d="M5826 4195 c61 -286 54 -262 281 -915 15 -41 28 -70 30 -64 2 6 -19 78 -47 160 -77 224 -144 435 -200 634 -38 134 -77 248 -64 185z"/>
<path d="M4434 3490 c3 -41 11 -158 17 -260 12 -216 31 -334 24 -150 -10 268 -25 464 -36 474 -9 8 -10 -8 -5 -64z"/>
<path d="M6185 3106 c14 -32 25 -63 25 -68 0 -5 32 -73 71 -151 39 -78 81 -169 93 -202 13 -34 35 -83 49 -111 14 -27 39 -97 56 -155 17 -58 44 -134 61 -170 35 -73 35 -68 -7 51 -16 47 -40 117 -53 155 -13 39 -36 97 -51 130 -14 33 -30 71 -34 84 -4 13 -42 94 -85 180 -43 87 -86 182 -95 213 -10 30 -26 66 -37 79 -15 19 -13 12 7 -35z"/>
<path d="M4478 2652 c1 -158 4 -307 5 -332 2 -25 4 102 5 282 1 180 -1 329 -5 331 -5 3 -7 -124 -5 -281z"/>
<path d="M6573 2170 c6 -20 50 -156 82 -250 21 -64 24 -68 19 -30 -3 25 -10 50 -15 56 -6 7 -18 43 -29 80 -10 38 -28 89 -40 114 -11 25 -19 38 -17 30z"/>
<path d="M4483 2055 c0 -33 2 -45 4 -27 2 18 2 45 0 60 -2 15 -4 0 -4 -33z"/>
<path d="M6680 1810 c0 -7 3 -10 7 -7 3 4 3 10 0 14 -4 3 -7 0 -7 -7z"/>
<path d="M4440 1570 c0 -7 3 -10 7 -7 3 4 3 10 0 14 -4 3 -7 0 -7 -7z"/>
<path d="M4417 1451 c-9 -46 -15 -86 -13 -89 9 -8 37 108 34 140 -2 25 -7 13 -21 -51z"/>
<path d="M6602 1297 c-26 -49 -35 -74 -23 -63 18 17 76 134 69 141 -1 2 -22 -33 -46 -78z"/>
<path d="M4165 980 c-16 -17 -16 -20 -3 -15 9 4 19 13 22 21 7 19 2 18 -19 -6z"/>
</g>
<g id="layer105" fill="#ff6cff" stroke="none">
<path d="M0 5000 l0 -5000 5000 0 5000 0 0 5000 0 5000 -5000 0 -5000 0 0 -5000z m5543 4255 c119 -16 343 -78 478 -133 98 -41 160 -62 183 -62 10 0 46 -28 79 -62 l62 -63 -28 47 c-15 26 -27 49 -27 52 0 3 37 -8 82 -24 45 -17 89 -28 98 -25 17 5 94 -78 110 -120 6 -14 10 -59 10 -99 0 -42 7 -92 16 -117 9 -24 24 -89 34 -144 11 -65 33 -133 60 -195 49 -112 160 -397 160 -414 0 -40 176 -377 280 -538 l57 -88 7 -217 c7 -236 -1 -335 -34 -411 -29 -65 -25 -92 30 -209 28 -58 50 -111 50 -118 0 -7 11 -33 25 -59 37 -69 85 -183 106 -251 40 -127 14 -572 -43 -727 -25 -70 -55 -96 -89 -78 -19 10 -21 18 -16 58 l5 47 -23 -46 c-35 -68 -110 -121 -188 -134 -54 -9 -61 -13 -58 -30 11 -58 11 -177 1 -225 -15 -69 -61 -176 -105 -244 -65 -100 -225 -236 -313 -267 -43 -15 -86 10 -79 46 4 21 2 23 -16 13 -42 -22 -78 -26 -184 -18 -102 8 -115 11 -199 54 -49 24 -101 47 -116 50 l-26 6 18 -48 c10 -26 21 -72 25 -102 20 -159 152 -630 237 -850 14 -36 30 -78 36 -95 6 -16 33 -84 60 -150 28 -66 69 -164 91 -219 23 -54 61 -135 86 -180 24 -44 49 -103 56 -131 6 -27 27 -89 45 -136 19 -48 34 -94 34 -103 0 -9 11 -38 24 -65 14 -26 34 -77 46 -112 12 -35 28 -77 35 -94 19 -43 33 -108 55 -257 27 -175 26 -349 -1 -471 -36 -165 -50 -199 -97 -247 -52 -53 -77 -87 -87 -118 -17 -56 -91 -84 -114 -44 -9 16 -15 14 -70 -15 -55 -30 -67 -33 -148 -33 -102 0 -169 17 -263 66 -93 49 -169 112 -224 185 -25 35 -66 89 -90 119 -45 56 -211 383 -300 590 -28 63 -65 142 -84 175 -73 128 -112 216 -150 340 -22 72 -55 171 -72 220 -17 50 -44 126 -60 170 -15 44 -46 123 -69 175 -39 89 -110 282 -202 550 -22 63 -48 133 -59 155 -10 22 -32 76 -50 120 -17 44 -34 83 -38 87 -9 10 -5 -334 8 -562 18 -345 2 -1548 -23 -1720 -8 -58 -18 -130 -21 -162 -13 -124 -104 -344 -184 -447 -54 -68 -82 -107 -101 -141 -36 -62 -65 -88 -126 -115 -68 -30 -116 -30 -129 0 -8 18 -18 20 -111 20 l-103 0 -71 49 c-78 53 -142 120 -173 180 -35 68 -153 564 -203 851 -3 17 -10 111 -16 210 -5 99 -16 236 -24 305 -8 69 -15 170 -15 225 -1 55 -5 147 -10 205 -6 58 -17 182 -25 277 -8 94 -19 191 -24 215 -5 23 -12 111 -16 193 -5 131 -66 984 -95 1335 -5 69 -21 294 -35 500 -32 480 -48 596 -147 1045 -17 77 -22 356 -9 511 15 178 69 398 126 514 12 25 25 65 29 89 4 24 22 73 41 109 19 36 35 70 35 76 0 6 12 28 26 49 24 36 94 197 94 218 0 5 20 63 44 128 45 121 70 207 91 321 13 70 37 167 87 353 33 122 60 168 128 217 37 26 274 86 371 94 84 6 228 29 329 51 36 8 117 24 180 35 63 12 124 23 135 26 11 3 144 7 295 10 151 4 277 8 279 10 10 10 200 3 304 -11z"/>
</g>
<g id="layer106" fill="#90fbf9" stroke="none">
<path d="M0 5000 l0 -5000 5000 0 5000 0 0 5000 0 5000 -5000 0 -5000 0 0 -5000z m5543 4255 c119 -16 343 -78 478 -133 98 -41 160 -62 183 -62 10 0 46 -28 79 -62 l62 -63 -28 47 c-15 26 -27 49 -27 52 0 3 37 -8 82 -24 45 -17 89 -28 98 -25 17 5 94 -78 110 -120 6 -14 10 -59 10 -99 0 -42 7 -92 16 -117 9 -24 24 -89 34 -144 11 -65 33 -133 60 -195 49 -112 160 -397 160 -414 0 -40 176 -377 280 -538 l57 -88 7 -217 c7 -226 -1 -331 -29 -401 l-16 -37 22 21 c26 26 49 118 49 199 0 33 7 85 15 115 8 30 15 70 15 89 0 58 -21 153 -45 207 -13 28 -27 73 -30 100 -8 55 -47 139 -105 229 -21 33 -52 94 -69 135 -16 41 -48 107 -70 145 -48 85 -226 609 -272 800 -5 22 -18 57 -29 77 -20 35 -49 192 -39 202 3 3 32 -5 64 -19 56 -22 60 -27 71 -67 6 -24 17 -54 24 -68 8 -14 19 -47 26 -75 29 -119 57 -209 104 -345 28 -80 62 -181 75 -225 30 -99 62 -176 98 -236 15 -25 42 -84 61 -131 18 -47 46 -105 63 -129 51 -75 93 -167 110 -242 9 -40 25 -90 36 -112 12 -22 24 -65 28 -95 4 -30 10 -74 14 -97 5 -27 2 -73 -8 -125 -9 -46 -26 -137 -37 -203 -12 -66 -28 -134 -37 -152 -14 -31 -14 -33 50 -141 90 -151 111 -195 146 -300 40 -121 48 -176 56 -364 8 -181 -1 -253 -52 -437 -39 -140 -54 -176 -83 -191 -34 -18 -63 5 -57 43 6 37 31 137 53 216 25 85 45 250 39 321 -3 36 -8 89 -10 118 -17 195 -56 306 -184 519 -32 54 -68 116 -79 138 -43 82 -21 1 28 -102 28 -58 50 -111 50 -118 0 -7 11 -33 25 -59 37 -69 85 -183 106 -251 40 -127 14 -572 -43 -727 -25 -70 -55 -96 -89 -78 -19 10 -21 18 -16 58 l5 47 -24 -46 c-16 -32 -43 -61 -83 -90 -43 -32 -58 -48 -53 -59 4 -8 7 -73 7 -145 0 -110 -4 -141 -24 -200 -71 -211 -212 -402 -329 -445 -30 -11 -63 -18 -73 -15 -26 8 -41 39 -33 69 l6 24 -52 -26 c-48 -24 -54 -25 -79 -11 -18 10 -26 23 -26 41 1 26 0 26 -30 10 -23 -12 -54 -15 -130 -14 -91 3 -128 8 -194 28 -21 6 -22 5 -13 -13 6 -11 14 -44 17 -74 4 -30 29 -121 56 -204 26 -82 64 -202 83 -265 44 -146 117 -355 140 -399 10 -19 44 -109 77 -200 55 -158 106 -287 149 -376 67 -141 105 -232 130 -315 16 -52 53 -167 84 -255 30 -88 58 -185 61 -215 4 -30 13 -92 21 -137 7 -45 11 -108 9 -140 -2 -32 -7 -105 -10 -163 -8 -137 -54 -323 -100 -405 -39 -70 -164 -195 -196 -195 -11 0 -22 7 -25 15 -8 19 -33 19 -40 0 -9 -22 -70 -20 -83 3 -9 16 -15 14 -70 -15 -55 -30 -67 -33 -148 -33 -102 0 -169 17 -263 66 -93 49 -169 112 -224 185 -25 35 -66 89 -90 119 -45 56 -211 383 -300 590 -28 63 -65 142 -84 175 -73 128 -112 216 -150 340 -22 72 -55 171 -72 220 -17 50 -44 126 -60 170 -15 44 -46 123 -69 175 -23 52 -69 171 -101 264 -33 94 -65 175 -70 180 -8 8 -10 -36 -8 -144 5 -277 -13 -1121 -27 -1280 -8 -85 -17 -191 -20 -235 -21 -267 -59 -447 -130 -606 -48 -109 -83 -161 -203 -303 -88 -104 -112 -122 -141 -106 -12 6 -21 15 -21 20 0 5 -30 -4 -67 -21 -76 -34 -123 -35 -137 -4 -8 18 -18 20 -111 20 l-103 0 -71 49 c-78 53 -142 120 -173 180 -35 68 -153 564 -203 851 -3 17 -10 111 -16 210 -5 99 -16 236 -24 305 -8 69 -15 170 -15 225 -1 55 -5 147 -10 205 -6 58 -17 182 -25 277 -8 94 -19 191 -24 215 -5 23 -12 111 -16 193 -5 131 -66 984 -95 1335 -5 69 -21 294 -35 500 -32 480 -48 596 -147 1045 -17 77 -22 356 -9 511 15 178 69 398 126 514 12 25 25 65 29 89 4 24 22 73 41 109 19 36 35 70 35 76 0 6 12 28 26 49 24 36 94 197 94 218 0 5 20 63 44 128 45 121 70 207 91 321 13 70 37 167 87 353 33 122 60 168 128 217 37 26 274 86 371 94 84 6 228 29 329 51 36 8 117 24 180 35 63 12 124 23 135 26 11 3 144 7 295 10 151 4 277 8 279 10 10 10 200 3 304 -11z"/>
<path d="M6471 8545 c-1 -24 30 -214 41 -250 19 -65 22 -14 4 83 -15 82 -44 189 -45 167z"/>
<path d="M6570 8169 c0 -12 159 -322 159 -311 1 7 -19 64 -43 126 -31 82 -54 125 -80 152 -20 20 -36 35 -36 33z"/>
<path d="M7083 6855 c0 -22 2 -30 4 -17 2 12 2 30 0 40 -3 9 -5 -1 -4 -23z"/>
<path d="M7042 6590 c0 -14 2 -19 5 -12 2 6 2 18 0 25 -3 6 -5 1 -5 -13z"/>
<path d="M7146 6205 c4 -16 24 -72 45 -124 68 -166 79 -222 80 -399 0 -203 17 -172 25 47 5 139 4 163 -14 216 -24 72 -87 207 -120 255 l-24 35 8 -30z"/>
<path d="M7251 5387 c-7 -31 -11 -63 -8 -70 2 -6 10 14 16 46 7 31 11 63 8 70 -2 6 -10 -14 -16 -46z"/>
<path d="M6965 5110 c-3 -5 -1 -20 6 -32 12 -22 12 -22 20 -3 4 11 8 26 8 33 1 14 -25 16 -34 2z"/>
<path d="M6960 4835 c0 -8 2 -15 4 -15 2 0 6 7 10 15 3 8 1 15 -4 15 -6 0 -10 -7 -10 -15z"/>
<path d="M6950 4800 c0 -7 3 -10 7 -7 3 4 3 10 0 14 -4 3 -7 0 -7 -7z"/>
<path d="M6921 4731 c-37 -86 -84 -152 -168 -231 -43 -41 -87 -80 -98 -87 -11 -7 1 -5 27 3 68 22 153 117 218 245 28 55 50 105 48 111 -2 6 -14 -12 -27 -41z"/>
<path d="M6624 4561 c-48 -37 -145 -126 -124 -115 70 36 199 144 173 144 -5 0 -28 -13 -49 -29z"/>
<path d="M5943 4480 c10 -25 13 -27 18 -13 4 10 2 24 -3 31 -19 22 -26 13 -15 -18z"/>
<path d="M4431 4163 c-13 -44 -13 -217 -2 -283 8 -45 9 -45 12 25 4 77 5 295 2 295 -1 0 -7 -17 -12 -37z"/>
<path d="M5837 4150 c29 -161 51 -237 167 -570 110 -319 120 -344 123 -334 3 9 -35 127 -100 309 -32 90 -131 417 -156 518 -22 85 -45 138 -34 77z"/>
<path d="M6010 4150 c0 -7 3 -10 7 -7 3 4 3 10 0 14 -4 3 -7 0 -7 -7z"/>
<path d="M6021 4130 c0 -3 11 -41 24 -85 20 -62 24 -70 20 -36 -5 36 -42 139 -44 121z"/>
<path d="M4594 3980 c3 -14 6 -128 7 -255 1 -220 15 -277 18 -72 1 83 4 100 21 117 11 11 25 20 31 20 12 0 7 18 -33 120 -30 77 -56 118 -44 70z"/>
<path d="M6071 3944 c0 -11 3 -14 6 -6 3 7 2 16 -1 19 -3 4 -6 -2 -5 -13z"/>
<path d="M6080 3910 c0 -7 3 -10 7 -7 3 4 3 10 0 14 -4 3 -7 0 -7 -7z"/>
<path d="M6094 3874 c3 -8 16 -49 28 -90 11 -41 23 -72 25 -70 6 6 -46 176 -53 176 -4 0 -3 -7 0 -16z"/>
<path d="M6153 3688 c2 -7 12 -40 22 -73 10 -33 20 -55 22 -48 4 12 -36 133 -44 133 -3 0 -3 -6 0 -12z"/>
<path d="M4435 3465 c14 -182 24 -219 20 -71 -3 86 -9 143 -16 150 -8 8 -9 -12 -4 -79z"/>
<path d="M6206 3530 c4 -14 13 -36 21 -50 l14 -25 -7 25 c-4 14 -13 36 -21 50 l-14 25 7 -25z"/>
<path d="M4613 3410 c0 -41 2 -58 4 -37 2 20 2 54 0 75 -2 20 -4 3 -4 -38z"/>
<path d="M6240 3442 c0 -26 229 -566 237 -558 3 2 -18 55 -47 121 -33 72 -90 211 -90 218 0 9 -49 126 -81 192 -10 22 -19 34 -19 27z"/>
<path d="M4623 3255 c0 -38 2 -53 4 -32 2 20 2 52 0 70 -2 17 -4 1 -4 -38z"/>
<path d="M4454 3150 c12 -170 26 -207 20 -50 -3 77 -10 139 -16 145 -7 7 -9 -20 -4 -95z"/>
<path d="M4623 2985 c0 -22 2 -30 4 -17 2 12 2 30 0 40 -3 9 -5 -1 -4 -23z"/>
<path d="M4616 2859 c-7 -34 -9 -835 -2 -828 5 4 16 859 11 859 -1 0 -5 -14 -9 -31z"/>
<path d="M6290 2864 c0 -6 7 -19 15 -30 8 -10 14 -14 14 -9 0 6 -6 19 -14 29 -8 11 -15 15 -15 10z"/>
<path d="M6550 2699 c0 -18 49 -130 49 -113 1 6 -10 37 -24 70 -13 32 -24 52 -25 43z"/>
<path d="M6451 2528 c-3 -19 69 -242 75 -235 2 2 -14 57 -35 123 -22 65 -39 116 -40 112z"/>
<path d="M6621 2490 c0 -14 28 -72 29 -59 0 4 -7 22 -15 40 -8 19 -14 27 -14 19z"/>
<path d="M6697 2305 c3 -16 12 -43 20 -60 l14 -30 -6 29 c-3 16 -12 43 -20 60 l-14 31 6 -30z"/>
<path d="M6530 2271 c0 -6 4 -13 10 -16 6 -3 7 1 4 9 -7 18 -14 21 -14 7z"/>
<path d="M6741 2174 c0 -11 3 -14 6 -6 3 7 2 16 -1 19 -3 4 -6 -2 -5 -13z"/>
<path d="M6751 2134 c0 -11 3 -14 6 -6 3 7 2 16 -1 19 -3 4 -6 -2 -5 -13z"/>
<path d="M6762 2090 c0 -14 2 -19 5 -12 2 6 2 18 0 25 -3 6 -5 1 -5 -13z"/>
<path d="M6602 2095 c0 -5 6 -26 13 -45 7 -19 14 -28 14 -20 0 8 -6 29 -14 45 -7 17 -13 26 -13 20z"/>
<path d="M6770 2020 c0 -7 3 -10 7 -7 3 4 3 10 0 14 -4 3 -7 0 -7 -7z"/>
<path d="M4603 1925 c0 -27 2 -38 4 -22 2 15 2 37 0 50 -2 12 -4 0 -4 -28z"/>
<path d="M6782 1950 c0 -14 2 -19 5 -12 2 6 2 18 0 25 -3 6 -5 1 -5 -13z"/>
<path d="M6640 1959 c0 -4 7 -22 15 -40 10 -25 14 -29 15 -13 0 17 -29 70 -30 53z"/>
<path d="M6792 1895 c0 -16 2 -22 5 -12 2 9 2 23 0 30 -3 6 -5 -1 -5 -18z"/>
<path d="M4590 1770 c0 -7 3 -10 7 -7 3 4 3 10 0 14 -4 3 -7 0 -7 -7z"/>
<path d="M4572 1620 c0 -14 2 -19 5 -12 2 6 2 18 0 25 -3 6 -5 1 -5 -13z"/>
<path d="M4421 1463 c-7 -29 -11 -58 -9 -65 3 -7 10 10 17 39 7 29 11 58 9 65 -3 7 -10 -10 -17 -39z"/>
<path d="M6590 1269 c-7 -11 -10 -23 -7 -25 2 -2 9 7 15 21 14 30 7 33 -8 4z"/>
<path d="M4440 1200 c-6 -11 -8 -20 -6 -20 3 0 10 9 16 20 6 11 8 20 6 20 -3 0 -10 -9 -16 -20z"/>
</g>
<g id="layer107" fill="#acecf1" stroke="none">
<path d="M0 5000 l0 -5000 5000 0 5000 0 0 5000 0 5000 -5000 0 -5000 0 0 -5000z m5543 4255 c119 -16 343 -78 478 -133 98 -41 160 -62 183 -62 10 0 46 -28 80 -62 33 -35 53 -51 44 -35 -10 15 -25 38 -34 52 -21 32 -13 31 83 -4 43 -15 84 -26 91 -23 18 6 87 -62 107 -104 9 -20 15 -60 15 -106 0 -48 7 -95 19 -131 11 -30 25 -91 31 -134 11 -69 76 -259 99 -287 11 -13 110 -275 123 -325 9 -35 142 -310 193 -401 37 -64 125 -200 131 -200 3 0 2 21 -2 48 -7 53 -46 138 -104 227 -21 33 -52 94 -69 135 -16 41 -48 107 -70 145 -48 85 -226 609 -272 800 -5 22 -18 57 -29 77 -20 35 -49 192 -39 202 3 3 32 -5 64 -19 56 -22 60 -27 71 -67 6 -24 17 -54 24 -68 8 -14 19 -47 26 -75 29 -119 57 -209 104 -345 28 -80 62 -181 75 -225 30 -99 62 -176 98 -236 15 -25 42 -84 61 -131 18 -47 46 -105 63 -129 51 -75 93 -167 110 -242 9 -40 25 -90 36 -112 12 -22 24 -65 28 -95 4 -30 10 -74 14 -97 5 -27 2 -73 -8 -125 -9 -46 -26 -137 -37 -203 -12 -66 -28 -134 -37 -152 -14 -31 -14 -33 50 -141 90 -151 111 -195 146 -300 40 -121 48 -176 56 -364 8 -181 -1 -253 -52 -437 -39 -140 -54 -176 -83 -191 -34 -18 -63 5 -57 43 6 37 31 137 53 216 25 85 45 250 39 321 -3 36 -8 89 -10 118 -17 195 -56 306 -184 519 -32 54 -68 116 -79 138 -40 76 -22 8 21 -81 24 -49 50 -107 57 -129 7 -22 35 -86 61 -142 84 -177 99 -235 99 -392 0 -260 -61 -559 -122 -595 -32 -19 -53 5 -52 59 l0 47 -22 -45 c-16 -30 -44 -60 -83 -88 -43 -32 -58 -48 -53 -59 4 -8 7 -73 7 -145 0 -110 -4 -141 -24 -200 -71 -211 -212 -402 -329 -445 -30 -11 -63 -18 -73 -15 -25 8 -42 41 -34 65 8 25 8 25 -40 0 -22 -11 -49 -20 -61 -20 -31 0 -57 28 -51 56 4 23 4 23 -27 6 -24 -12 -54 -15 -131 -14 -91 3 -128 8 -194 28 -21 6 -22 5 -13 -13 6 -11 14 -44 17 -74 4 -30 29 -121 56 -204 26 -82 64 -202 83 -265 44 -146 117 -355 140 -399 10 -19 44 -109 77 -200 55 -158 106 -287 149 -376 67 -141 105 -232 130 -315 16 -52 53 -167 84 -255 30 -88 58 -185 61 -215 4 -30 13 -92 21 -137 7 -45 11 -108 9 -140 -2 -32 -7 -105 -10 -163 -8 -137 -54 -323 -100 -405 -38 -69 -164 -195 -195 -195 -10 0 -23 8 -29 17 -9 17 -11 16 -33 -5 -30 -28 -61 -28 -87 -1 l-20 21 -54 -31 c-50 -28 -62 -31 -144 -31 -103 0 -169 17 -263 66 -93 49 -169 112 -224 185 -25 35 -66 89 -90 119 -45 56 -211 383 -300 590 -28 63 -65 142 -84 175 -73 128 -112 216 -150 340 -22 72 -55 171 -72 220 -17 50 -44 126 -60 170 -15 44 -46 123 -69 175 -23 52 -69 171 -101 264 -33 94 -65 175 -70 180 -8 8 -10 -36 -8 -144 5 -277 -13 -1121 -27 -1280 -8 -85 -17 -191 -20 -235 -21 -267 -59 -447 -130 -606 -48 -109 -83 -161 -203 -303 -88 -104 -112 -122 -141 -106 -12 6 -21 14 -21 19 0 4 -26 -4 -57 -19 -81 -38 -117 -45 -137 -25 -9 9 -16 22 -16 28 0 9 -31 12 -104 12 l-104 0 -71 49 c-78 53 -142 120 -173 180 -35 68 -153 564 -203 851 -3 17 -10 111 -16 210 -5 99 -16 236 -24 305 -8 69 -15 170 -15 225 -1 55 -5 147 -10 205 -6 58 -17 182 -25 277 -8 94 -19 191 -24 215 -5 23 -12 111 -16 193 -5 131 -66 984 -95 1335 -5 69 -21 294 -35 500 -32 480 -48 596 -147 1045 -17 77 -22 356 -9 511 15 178 69 398 126 514 12 25 25 65 29 89 4 24 22 73 41 109 19 36 35 70 35 76 0 6 12 28 26 49 24 36 94 197 94 218 0 5 20 63 44 128 45 121 70 207 91 321 13 70 37 167 87 353 33 122 60 168 128 217 37 26 274 86 371 94 84 6 228 29 329 51 36 8 117 24 180 35 63 12 124 23 135 26 11 3 144 7 295 10 151 4 277 8 279 10 10 10 200 3 304 -11z"/>
<path d="M6471 8524 c0 -11 3 -14 6 -6 3 7 2 16 -1 19 -3 4 -6 -2 -5 -13z"/>
<path d="M6481 8480 c-2 -56 35 -227 46 -217 6 7 -23 187 -36 219 l-10 23 0 -25z"/>
<path d="M6570 8168 c0 -2 36 -75 80 -163 85 -169 92 -172 29 -12 -24 61 -52 113 -74 138 -19 21 -35 38 -35 37z"/>
<path d="M7205 7249 c9 -47 7 -421 -3 -495 -5 -39 -17 -86 -27 -105 l-17 -34 22 21 c27 26 50 117 50 199 0 33 7 85 15 115 8 30 15 70 15 89 0 55 -20 153 -41 196 -14 29 -18 33 -14 14z"/>
<path d="M7082 6855 c0 -16 2 -22 5 -12 2 9 2 23 0 30 -3 6 -5 -1 -5 -18z"/>
<path d="M7041 6594 c0 -11 3 -14 6 -6 3 7 2 16 -1 19 -3 4 -6 -2 -5 -13z"/>
<path d="M7150 6600 c0 -7 3 -10 7 -7 3 4 3 10 0 14 -4 3 -7 0 -7 -7z"/>
<path d="M7146 6205 c4 -16 24 -72 45 -124 64 -157 79 -226 79 -362 0 -77 4 -118 10 -114 6 4 10 67 10 158 0 165 -3 180 -65 310 -19 42 -35 78 -35 81 0 3 -12 22 -26 43 -25 37 -25 37 -18 8z"/>
<path d="M7271 5544 c0 -11 3 -14 6 -6 3 7 2 16 -1 19 -3 4 -6 -2 -5 -13z"/>
<path d="M7251 5390 c-13 -61 -14 -81 -2 -60 10 17 25 110 17 110 -2 0 -9 -23 -15 -50z"/>
<path d="M6967 5113 c-3 -5 0 -19 5 -33 10 -24 11 -24 18 -5 13 31 11 45 -4 45 -8 0 -17 -3 -19 -7z"/>
<path d="M6970 4880 c0 -7 3 -10 7 -7 3 4 3 10 0 14 -4 3 -7 0 -7 -7z"/>
<path d="M6920 4722 c-36 -83 -84 -147 -174 -234 -70 -67 -77 -76 -48 -67 51 17 144 128 202 240 28 55 50 104 48 109 -2 5 -14 -17 -28 -48z"/>
<path d="M6624 4561 c-21 -17 -61 -51 -89 -76 l-50 -47 60 40 c53 36 138 112 123 112 -3 0 -23 -13 -44 -29z"/>
<path d="M5943 4486 c8 -16 14 -20 19 -13 4 6 2 17 -4 24 -18 22 -27 15 -15 -11z"/>
<path d="M4460 4228 c-12 -22 -12 -22 6 -6 10 10 15 20 12 24 -4 3 -12 -5 -18 -18z"/>
<path d="M4426 4149 c-8 -43 -6 -214 3 -269 6 -31 9 7 10 128 0 94 -1 172 -3 172 -2 0 -6 -14 -10 -31z"/>
<path d="M5830 4170 c0 -7 3 -10 7 -7 3 4 3 10 0 14 -4 3 -7 0 -7 -7z"/>
<path d="M5846 4105 c13 -93 43 -195 153 -510 109 -315 124 -356 128 -351 2 2 -17 64 -42 137 -42 120 -132 402 -200 625 -14 45 -25 90 -25 100 0 11 -5 26 -11 34 -7 11 -8 0 -3 -35z"/>
<path d="M6026 4115 c39 -127 44 -139 38 -100 -3 22 -14 58 -25 80 -11 22 -16 31 -13 20z"/>
<path d="M4605 3946 c3 -27 6 -128 7 -225 2 -161 2 -167 7 -68 6 109 12 126 53 139 9 3 -17 86 -51 158 l-21 45 5 -49z"/>
<path d="M6070 3950 c0 -7 3 -10 7 -7 3 4 3 10 0 14 -4 3 -7 0 -7 -7z"/>
<path d="M6100 3860 c0 -7 3 -10 7 -7 3 4 3 10 0 14 -4 3 -7 0 -7 -7z"/>
<path d="M6111 3830 c0 -8 4 -24 9 -35 5 -13 9 -14 9 -5 0 8 -4 24 -9 35 -5 13 -9 14 -9 5z"/>
<path d="M6131 3760 c0 -8 4 -22 9 -30 12 -18 12 -2 0 25 -6 13 -9 15 -9 5z"/>
<path d="M6152 3688 c3 -7 13 -37 23 -66 9 -29 19 -51 22 -48 5 5 -37 126 -44 126 -3 0 -3 -6 -1 -12z"/>
<path d="M6216 3510 c3 -14 11 -32 16 -40 6 -10 7 -7 2 10 -3 14 -11 32 -16 40 -6 10 -7 7 -2 -10z"/>
<path d="M4438 3514 c-4 -6 -2 -67 5 -135 12 -123 12 -123 15 -49 3 85 -10 201 -20 184z"/>
<path d="M4610 3470 c0 -7 3 -10 7 -7 3 4 3 10 0 14 -4 3 -7 0 -7 -7z"/>
<path d="M6240 3440 c0 -7 3 -10 7 -7 3 4 3 10 0 14 -4 3 -7 0 -7 -7z"/>
<path d="M6254 3405 c19 -58 81 -195 84 -186 2 5 -11 41 -27 80 -17 38 -31 73 -31 78 0 4 -8 17 -17 28 l-16 20 7 -20z"/>
<path d="M4621 3304 c0 -11 3 -14 6 -6 3 7 2 16 -1 19 -3 4 -6 -2 -5 -13z"/>
<path d="M4622 3220 c0 -19 2 -27 5 -17 2 9 2 25 0 35 -3 9 -5 1 -5 -18z"/>
<path d="M4454 3145 c12 -163 26 -200 20 -50 -3 72 -10 134 -16 140 -7 7 -8 -19 -4 -90z"/>
<path d="M6340 3199 c0 -12 62 -154 71 -164 6 -5 -3 23 -20 62 -30 73 -50 113 -51 102z"/>
<path d="M6186 3110 c3 -14 11 -32 16 -40 6 -10 7 -7 2 10 -3 14 -11 32 -16 40 -6 10 -7 7 -2 -10z"/>
<path d="M6210 3040 c0 -7 3 -10 7 -7 3 4 3 10 0 14 -4 3 -7 0 -7 -7z"/>
<path d="M4622 2990 c0 -19 2 -27 5 -17 2 9 2 25 0 35 -3 9 -5 1 -5 -18z"/>
<path d="M6220 3010 c0 -7 3 -10 7 -7 3 4 3 10 0 14 -4 3 -7 0 -7 -7z"/>
<path d="M4620 2870 c0 -7 3 -10 7 -7 3 4 3 10 0 14 -4 3 -7 0 -7 -7z"/>
<path d="M6290 2864 c0 -6 7 -19 16 -30 14 -18 14 -18 3 6 -14 31 -19 36 -19 24z"/>
<path d="M6371 2700 c0 -8 6 -26 15 -40 l15 -25 -7 25 c-3 14 -10 32 -15 40 -7 13 -8 13 -8 0z"/>
<path d="M6551 2700 c0 -14 28 -72 29 -59 0 4 -7 22 -15 40 -8 19 -14 27 -14 19z"/>
<path d="M6400 2621 c0 -6 4 -13 10 -16 6 -3 7 1 4 9 -7 18 -14 21 -14 7z"/>
<path d="M6581 2625 c1 -19 18 -51 18 -35 0 8 -4 22 -9 30 -5 8 -9 11 -9 5z"/>
<path d="M6600 2560 c0 -7 3 -10 7 -7 3 4 3 10 0 14 -4 3 -7 0 -7 -7z"/>
<path d="M6610 2530 c0 -7 3 -10 7 -7 3 4 3 10 0 14 -4 3 -7 0 -7 -7z"/>
<path d="M6620 2490 c0 -7 3 -10 7 -7 3 4 3 10 0 14 -4 3 -7 0 -7 -7z"/>
<path d="M6460 2480 c0 -7 3 -10 7 -7 3 4 3 10 0 14 -4 3 -7 0 -7 -7z"/>
<path d="M6630 2465 c0 -5 5 -17 10 -25 5 -8 10 -10 10 -5 0 6 -5 17 -10 25 -5 8 -10 11 -10 5z"/>
<path d="M6470 2450 c0 -7 3 -10 7 -7 3 4 3 10 0 14 -4 3 -7 0 -7 -7z"/>
<path d="M6486 2400 c4 -19 10 -42 15 -50 11 -18 1 34 -13 65 -5 13 -6 9 -2 -15z"/>
<path d="M6510 2320 c0 -7 3 -10 7 -7 3 4 3 10 0 14 -4 3 -7 0 -7 -7z"/>
<path d="M6697 2310 c3 -14 12 -41 20 -60 11 -30 12 -31 8 -6 -4 16 -13 43 -20 60 -11 23 -13 25 -8 6z"/>
<path d="M6530 2270 c0 -7 3 -10 7 -7 3 4 3 10 0 14 -4 3 -7 0 -7 -7z"/>
<path d="M4614 2115 c0 -49 1 -71 3 -48 2 23 2 64 0 90 -2 26 -3 8 -3 -42z"/>
<path d="M6740 2180 c0 -7 3 -10 7 -7 3 4 3 10 0 14 -4 3 -7 0 -7 -7z"/>
<path d="M6761 2094 c0 -11 3 -14 6 -6 3 7 2 16 -1 19 -3 4 -6 -2 -5 -13z"/>
<path d="M6600 2090 c0 -7 3 -10 7 -7 3 4 3 10 0 14 -4 3 -7 0 -7 -7z"/>
<path d="M6610 2060 c0 -7 3 -10 7 -7 3 4 3 10 0 14 -4 3 -7 0 -7 -7z"/>
<path d="M6620 2030 c0 -7 3 -10 7 -7 3 4 3 10 0 14 -4 3 -7 0 -7 -7z"/>
<path d="M6781 1954 c0 -11 3 -14 6 -6 3 7 2 16 -1 19 -3 4 -6 -2 -5 -13z"/>
<path d="M4603 1920 c0 -25 2 -35 4 -22 2 12 2 32 0 45 -2 12 -4 2 -4 -23z"/>
<path d="M6648 1935 c5 -11 12 -27 15 -35 5 -13 6 -13 6 1 1 8 -6 24 -15 35 -15 19 -15 19 -6 -1z"/>
<path d="M6792 1900 c0 -14 2 -19 5 -12 2 6 2 18 0 25 -3 6 -5 1 -5 -13z"/>
<path d="M4580 1690 c0 -7 3 -10 7 -7 3 4 3 10 0 14 -4 3 -7 0 -7 -7z"/>
<path d="M4571 1614 c0 -11 3 -14 6 -6 3 7 2 16 -1 19 -3 4 -6 -2 -5 -13z"/>
<path d="M4420 1460 c-7 -28 -10 -53 -7 -56 3 -3 10 18 16 47 15 68 7 75 -9 9z"/>
<path d="M6626 1345 c-9 -26 -7 -32 5 -12 6 10 9 21 6 23 -2 3 -7 -2 -11 -11z"/>
<path d="M6586 1263 c-6 -14 -5 -15 5 -6 7 7 10 15 7 18 -3 3 -9 -2 -12 -12z"/>
<path d="M4434 1188 c-4 -7 -3 -8 4 -4 12 7 16 16 8 16 -3 0 -8 -5 -12 -12z"/>
</g>
<g id="layer108" fill="#d1f8fb" stroke="none">
<path d="M0 5000 l0 -5000 5000 0 5000 0 0 5000 0 5000 -5000 0 -5000 0 0 -5000z m5543 4255 c119 -16 343 -78 478 -133 93 -39 160 -62 179 -62 9 0 31 -13 50 -30 41 -34 55 -38 40 -10 -14 26 -5 26 76 -5 36 -14 78 -25 93 -25 18 0 40 -13 68 -42 57 -60 63 -76 63 -166 0 -52 7 -98 19 -135 11 -32 27 -96 35 -145 15 -81 46 -173 93 -267 11 -22 43 -105 72 -185 82 -224 108 -286 171 -405 94 -180 193 -345 207 -345 2 0 1 21 -3 48 -7 53 -46 138 -104 227 -21 33 -52 94 -69 135 -16 41 -48 107 -70 145 -48 85 -226 609 -272 800 -5 22 -18 57 -29 77 -20 35 -49 192 -39 202 3 3 32 -5 64 -19 56 -22 60 -27 71 -67 6 -24 17 -54 24 -68 8 -14 19 -47 26 -75 29 -119 57 -209 104 -345 28 -80 62 -181 75 -225 30 -99 62 -176 98 -236 15 -25 42 -84 61 -131 18 -47 46 -105 63 -129 51 -75 93 -167 110 -242 9 -40 25 -90 36 -112 12 -22 24 -65 28 -95 4 -30 10 -74 14 -97 5 -27 2 -73 -8 -125 -9 -46 -26 -137 -37 -203 -12 -66 -28 -134 -37 -152 -14 -31 -14 -33 50 -141 90 -151 111 -195 146 -300 40 -121 48 -176 56 -364 8 -181 -1 -253 -52 -437 -39 -140 -54 -176 -83 -191 -34 -18 -63 5 -57 43 6 37 31 137 53 216 25 85 45 250 39 321 -3 36 -8 89 -10 118 -17 195 -56 306 -184 519 -32 54 -68 116 -79 138 -43 81 -20 6 28 -93 28 -57 50 -109 50 -115 0 -7 18 -48 39 -93 106 -218 121 -275 121 -451 -1 -126 -8 -203 -40 -395 -28 -164 -88 -240 -137 -172 l-19 25 -44 -41 c-25 -23 -57 -49 -73 -58 -19 -12 -25 -21 -20 -32 5 -8 8 -73 8 -145 0 -110 -4 -141 -24 -200 -71 -211 -212 -402 -329 -445 -30 -11 -63 -18 -73 -15 -25 8 -42 41 -34 65 8 25 3 25 -37 0 -57 -34 -118 -21 -118 26 0 21 -4 25 -17 19 -10 -4 -30 -11 -44 -15 -34 -10 -241 5 -268 19 -31 17 -43 14 -32 -7 5 -10 13 -43 16 -73 4 -30 29 -121 56 -204 26 -82 64 -202 83 -265 44 -146 117 -355 140 -399 10 -19 44 -109 77 -200 55 -158 106 -287 149 -376 67 -141 105 -232 130 -315 16 -52 53 -167 84 -255 30 -88 58 -185 61 -215 4 -30 13 -92 21 -137 7 -45 11 -108 9 -140 -2 -32 -7 -105 -10 -163 -8 -137 -54 -323 -100 -405 -38 -69 -164 -195 -195 -195 -10 0 -23 8 -29 17 -9 17 -11 16 -33 -5 -28 -25 -76 -29 -84 -7 -9 22 -43 18 -89 -10 -35 -22 -52 -25 -131 -25 -104 0 -169 16 -264 66 -93 49 -169 112 -224 185 -25 35 -66 89 -90 119 -45 56 -211 383 -300 590 -28 63 -65 142 -84 175 -73 128 -112 216 -150 340 -22 72 -55 171 -72 220 -17 50 -44 126 -60 170 -15 44 -46 123 -69 175 -23 52 -69 171 -101 264 -33 94 -65 175 -70 180 -8 8 -10 -36 -8 -144 5 -277 -13 -1121 -27 -1280 -8 -85 -17 -191 -20 -235 -12 -147 -35 -309 -60 -406 -31 -122 -103 -287 -158 -360 -69 -93 -187 -228 -213 -245 -22 -15 -26 -15 -48 0 -23 14 -29 14 -100 -16 -64 -27 -79 -30 -101 -20 -14 6 -25 20 -25 29 0 16 -11 18 -104 18 l-104 0 -71 49 c-78 53 -142 120 -173 180 -35 68 -153 564 -203 851 -3 17 -10 111 -16 210 -5 99 -16 236 -24 305 -8 69 -15 170 -15 225 -1 55 -5 147 -10 205 -6 58 -17 182 -25 277 -8 94 -19 191 -24 215 -5 23 -12 111 -16 193 -5 131 -66 984 -95 1335 -5 69 -21 294 -35 500 -32 480 -48 596 -147 1045 -17 77 -22 356 -9 511 15 178 69 398 126 514 12 25 25 65 29 89 4 24 22 73 41 109 19 36 35 70 35 76 0 6 12 28 26 49 24 36 94 197 94 218 0 5 20 63 44 128 45 121 70 207 91 321 13 70 37 167 87 353 33 122 60 168 128 217 37 26 274 86 371 94 84 6 228 29 329 51 36 8 117 24 180 35 63 12 124 23 135 26 11 3 144 7 295 10 151 4 277 8 279 10 10 10 200 3 304 -11z"/>
<path d="M4765 9129 c-67 -5 -175 -22 -245 -38 -69 -17 -161 -35 -205 -41 -412 -57 -633 -105 -658 -144 -13 -20 -36 -109 -72 -281 -9 -44 -25 -107 -35 -140 -10 -33 -26 -96 -35 -140 -10 -44 -39 -146 -66 -227 -27 -81 -49 -153 -49 -160 0 -7 -6 -25 -14 -39 -7 -15 -21 -49 -30 -76 -9 -27 -27 -64 -40 -83 -13 -19 -27 -46 -31 -60 -4 -14 -18 -45 -31 -69 -13 -24 -31 -71 -39 -105 -7 -34 -27 -90 -43 -126 -48 -105 -89 -289 -103 -456 -16 -207 -7 -375 31 -554 17 -80 37 -177 45 -217 20 -101 65 -386 65 -414 0 -28 24 -49 155 -136 55 -36 136 -93 180 -127 44 -34 100 -74 125 -90 25 -16 88 -59 140 -96 52 -36 140 -93 195 -125 55 -32 123 -73 150 -90 28 -18 56 -35 63 -39 31 -18 160 -47 249 -56 54 -6 105 -13 113 -15 8 -2 58 -7 110 -10 52 -4 136 -15 185 -25 94 -18 225 -25 225 -11 0 5 -7 14 -15 21 -19 16 -19 73 0 114 46 96 141 161 340 231 159 56 254 97 255 110 0 6 -30 43 -66 82 -57 64 -102 101 -291 246 -75 58 -191 128 -235 145 -28 10 -89 17 -178 19 -142 5 -174 -1 -466 -83 -52 -15 -66 -16 -93 -5 -36 16 -42 48 -12 75 48 43 267 99 497 127 92 11 110 11 207 -8 85 -17 118 -29 167 -60 33 -21 84 -53 113 -71 29 -18 84 -59 122 -91 39 -33 97 -80 130 -104 66 -50 190 -189 223 -252 72 -136 94 -263 72 -414 l-12 -86 -79 -79 c-43 -43 -79 -83 -79 -90 0 -26 29 -46 138 -95 61 -28 163 -75 225 -103 110 -51 114 -53 219 -56 l107 -4 74 70 c40 38 92 81 115 96 54 34 117 98 149 153 23 40 24 49 21 165 l-3 123 -74 135 c-41 74 -91 162 -111 195 -50 80 -78 131 -180 320 -48 88 -109 197 -136 241 -27 45 -74 125 -104 179 -56 98 -139 222 -197 290 l-32 38 -40 -35 c-23 -19 -101 -65 -173 -103 l-132 -67 -181 4 c-110 3 -193 10 -213 18 -18 7 -35 10 -38 8 -6 -7 78 -188 110 -234 40 -60 27 -114 -28 -114 -64 0 -145 124 -243 373 -35 87 -37 98 -36 207 0 113 28 259 53 284 6 6 10 16 10 24 0 15 4 15 -265 -14 -119 -14 -153 -22 -230 -54 -49 -21 -143 -54 -207 -74 -72 -23 -136 -50 -167 -71 -58 -40 -78 -43 -115 -14 -19 15 -26 30 -26 54 0 65 79 118 252 168 47 14 113 37 149 52 140 59 162 65 271 79 62 8 196 22 298 31 323 28 389 47 715 214 148 76 166 83 236 88 86 6 119 -5 119 -41 0 -31 -10 -38 -105 -79 -44 -19 -116 -56 -161 -83 -44 -27 -117 -67 -162 -89 -45 -21 -82 -42 -82 -46 0 -4 20 -12 44 -18 26 -6 78 -36 125 -71 70 -52 82 -58 88 -43 66 189 110 224 317 258 184 29 247 17 386 -76 100 -67 195 -166 274 -286 76 -114 127 -183 137 -183 4 0 13 19 19 43 6 23 14 49 17 57 8 20 22 199 29 376 l6 141 -33 59 c-18 32 -50 84 -71 114 -72 103 -110 165 -133 215 -12 28 -33 64 -47 80 -41 49 -275 525 -298 606 -11 41 -30 137 -41 214 -22 153 -56 274 -94 338 -51 87 -73 104 -215 163 -201 83 -233 93 -380 121 -124 23 -161 26 -450 28 -173 2 -369 -1 -435 -6z"/>
<path d="M6480 8480 c0 -7 3 -10 7 -7 3 4 3 10 0 14 -4 3 -7 0 -7 -7z"/>
<path d="M6487 8453 c-10 -17 29 -200 40 -189 6 5 -26 196 -32 196 -2 0 -6 -3 -8 -7z"/>
<path d="M6590 8136 c0 -14 99 -214 109 -221 10 -6 -37 134 -58 173 -11 21 -51 58 -51 48z"/>
<path d="M7205 7240 c21 -188 8 -502 -25 -585 -10 -28 -10 -29 5 -14 22 22 45 119 45 194 0 33 7 85 15 115 8 30 15 70 15 89 0 54 -20 152 -40 196 l-18 40 3 -35z"/>
<path d="M6095 7009 c-72 -10 -146 -29 -162 -41 -15 -12 -52 -91 -70 -151 l-14 -48 80 -82 c43 -45 91 -97 106 -114 31 -38 45 -42 45 -12 0 31 94 113 180 157 86 44 154 68 222 78 62 8 84 24 70 50 -15 29 -199 150 -247 163 -46 12 -122 12 -210 0z"/>
<path d="M5173 6840 c-29 -16 -59 -41 -68 -53 -22 -34 -50 -213 -41 -268 6 -41 11 -48 44 -62 77 -33 129 -41 277 -41 l150 -1 109 60 c59 33 124 74 144 91 l36 31 -55 62 c-64 74 -168 163 -218 188 -28 13 -69 18 -181 21 l-145 3 -52 -31z"/>
<path d="M6530 6695 c-154 -21 -224 -54 -332 -157 l-78 -73 48 -71 c26 -40 70 -111 97 -160 28 -48 74 -128 103 -178 30 -50 86 -154 126 -231 41 -77 104 -194 141 -260 38 -66 94 -167 126 -225 l57 -105 79 -8 c96 -9 138 1 182 47 50 51 70 154 70 359 1 165 -17 276 -56 351 -9 17 -30 68 -47 113 -25 65 -38 87 -65 105 -24 15 -50 51 -80 109 -74 140 -81 151 -137 225 -29 40 -68 95 -85 123 -19 30 -39 50 -48 50 -9 -1 -54 -7 -101 -14z"/>
<path d="M7157 6183 c-3 -5 13 -51 34 -103 62 -149 79 -226 79 -345 0 -58 4 -107 10 -110 6 -4 10 46 10 143 0 162 -1 166 -84 345 -35 76 -41 84 -49 70z"/>
<path d="M3234 5532 c-6 -43 3 -229 26 -497 5 -60 14 -180 20 -265 6 -85 17 -231 25 -325 8 -93 21 -249 29 -345 9 -96 18 -227 21 -290 9 -169 35 -461 41 -472 3 -5 21 3 40 17 62 47 159 85 300 116 123 28 158 32 309 33 94 0 184 -2 201 -6 l31 -7 6 128 c4 70 2 187 -4 258 -6 86 -7 168 -1 240 9 98 14 117 48 183 103 198 228 153 371 -135 22 -42 106 -273 143 -390 13 -38 42 -115 66 -170 23 -55 65 -165 92 -245 28 -80 64 -174 81 -210 28 -60 72 -175 153 -400 17 -47 45 -134 63 -195 34 -116 57 -176 80 -211 13 -20 15 -20 73 36 73 69 166 119 308 165 138 44 222 58 304 50 88 -8 128 -22 136 -47 11 -36 -10 -41 -153 -43 -130 -1 -145 -3 -248 -37 -184 -61 -240 -91 -322 -176 l-42 -43 64 -134 c36 -74 65 -137 65 -140 0 -3 47 -101 104 -218 153 -312 302 -506 438 -570 26 -13 63 -17 137 -17 129 0 157 16 223 128 160 271 157 377 -24 832 -27 69 -67 177 -88 240 -21 63 -56 154 -79 201 -23 48 -41 93 -41 100 0 8 -12 32 -26 54 -35 57 -101 196 -134 287 -16 42 -41 100 -55 127 -14 28 -38 88 -54 133 -15 46 -56 164 -91 263 -103 300 -130 386 -150 485 -10 52 -31 156 -46 230 -16 81 -29 187 -33 265 l-6 129 -210 69 c-246 80 -281 91 -355 106 -100 20 -454 70 -545 76 -142 10 -314 34 -338 46 -12 7 -81 51 -153 100 -73 48 -149 96 -170 107 -22 11 -62 38 -91 59 -29 21 -87 63 -130 93 -43 30 -143 102 -223 160 -80 59 -153 110 -162 113 -14 5 -18 -3 -24 -41z m2481 -2106 c76 -36 95 -49 101 -70 16 -63 -57 -74 -164 -25 -66 31 -69 31 -217 30 l-150 -1 -81 -40 c-91 -45 -118 -49 -134 -20 -20 37 8 70 95 117 44 23 91 44 105 46 14 2 98 5 188 6 l162 1 95 -44z"/>
<path d="M5655 5269 c-38 -17 -130 -51 -203 -75 -136 -45 -191 -70 -227 -101 -31 -28 -63 -76 -71 -109 -4 -16 -11 -35 -17 -42 -13 -17 -10 -19 48 -33 73 -18 218 -63 313 -98 99 -37 102 -37 102 -10 0 23 41 66 85 90 17 8 42 33 58 55 24 35 28 54 34 137 5 79 3 109 -12 157 -10 33 -23 60 -29 60 -6 -1 -42 -14 -81 -31z"/>
<path d="M6967 5114 c-3 -3 -1 -17 6 -31 10 -23 12 -23 18 -6 12 28 10 43 -4 43 -8 0 -16 -3 -20 -6z"/>
<path d="M6965 4839 c-4 -6 -5 -12 -2 -15 2 -3 7 2 10 11 7 17 1 20 -8 4z"/>
<path d="M6930 4739 c-7 -11 -10 -23 -7 -25 2 -2 9 7 15 21 14 30 7 33 -8 4z"/>
<path d="M6874 4633 c-15 -26 -68 -87 -118 -135 -77 -75 -86 -87 -58 -77 42 14 140 122 181 199 38 71 35 80 -5 13z"/>
<path d="M6587 4530 c-23 -22 -36 -40 -29 -40 7 0 32 18 55 40 23 22 36 40 29 40 -7 0 -32 -18 -55 -40z"/>
<path d="M5946 4485 c4 -8 10 -12 15 -9 11 6 2 24 -11 24 -5 0 -7 -7 -4 -15z"/>
<path d="M4470 4240 c0 -7 3 -10 7 -7 3 4 3 10 0 14 -4 3 -7 0 -7 -7z"/>
<path d="M4426 4144 c-9 -23 -6 -224 4 -254 5 -15 8 33 9 123 1 81 -1 147 -3 147 -2 0 -7 -7 -10 -16z"/>
<path d="M5851 4104 c0 -11 3 -14 6 -6 3 7 2 16 -1 19 -3 4 -6 -2 -5 -13z"/>
<path d="M6032 4105 c0 -5 6 -26 13 -45 7 -19 14 -28 14 -20 0 8 -6 29 -14 45 -7 17 -13 26 -13 20z"/>
<path d="M5860 4035 c0 -14 9 -51 21 -83 11 -31 25 -75 30 -97 13 -53 61 -176 67 -171 2 3 -14 63 -36 133 -23 70 -48 154 -57 186 -18 62 -25 71 -25 32z"/>
<path d="M6060 4000 c0 -7 3 -10 7 -7 3 4 3 10 0 14 -4 3 -7 0 -7 -7z"/>
<path d="M4604 3950 c3 -14 7 -110 8 -215 1 -166 2 -176 7 -82 5 92 9 111 25 123 11 8 24 14 29 14 4 0 5 10 1 23 -18 61 -46 125 -60 143 -15 18 -15 18 -10 -6z"/>
<path d="M6110 3830 c0 -7 3 -10 7 -7 3 4 3 10 0 14 -4 3 -7 0 -7 -7z"/>
<path d="M6130 3760 c0 -7 3 -10 7 -7 3 4 3 10 0 14 -4 3 -7 0 -7 -7z"/>
<path d="M6140 3730 c0 -7 3 -10 7 -7 3 4 3 10 0 14 -4 3 -7 0 -7 -7z"/>
<path d="M6180 3610 c0 -8 5 -22 10 -30 9 -13 10 -13 10 0 0 8 -5 22 -10 30 -9 13 -10 13 -10 0z"/>
<path d="M6210 3521 c0 -6 4 -13 10 -16 6 -3 7 1 4 9 -7 18 -14 21 -14 7z"/>
<path d="M4437 3513 c-7 -12 8 -191 18 -201 7 -7 5 100 -3 163 -4 28 -10 45 -15 38z"/>
<path d="M6051 3454 c0 -11 3 -14 6 -6 3 7 2 16 -1 19 -3 4 -6 -2 -5 -13z"/>
<path d="M6061 3420 c0 -8 6 -26 15 -40 l15 -25 -7 25 c-3 14 -10 32 -15 40 -7 13 -8 13 -8 0z"/>
<path d="M6250 3419 c0 -12 89 -212 90 -201 0 8 -13 44 -30 82 -16 38 -30 72 -30 77 -1 8 -30 50 -30 42z"/>
<path d="M3930 3399 c-126 -11 -309 -53 -371 -84 -30 -16 -74 -46 -99 -68 l-45 -40 7 -86 c3 -47 14 -219 22 -381 9 -162 20 -326 26 -365 5 -38 9 -73 10 -77 0 -15 20 -7 107 44 48 28 106 61 128 74 55 31 137 52 280 69 66 8 138 19 160 25 46 11 121 4 152 -16 21 -13 21 -12 28 80 7 91 -7 369 -25 511 -5 39 -10 113 -10 166 0 53 -3 111 -6 128 l-6 31 -137 -1 c-75 -1 -174 -5 -221 -10z"/>
<path d="M4455 3210 c-10 -16 5 -169 17 -176 6 -4 7 27 3 87 -8 101 -9 106 -20 89z"/>
<path d="M6350 3177 c0 -11 39 -97 44 -97 3 0 -4 21 -15 47 -20 46 -29 62 -29 50z"/>
<path d="M6400 3051 c0 -6 4 -13 10 -16 6 -3 7 1 4 9 -7 18 -14 21 -14 7z"/>
<path d="M4622 2995 c0 -16 2 -22 5 -12 2 9 2 23 0 30 -3 6 -5 -1 -5 -18z"/>
<path d="M6420 3003 c0 -5 7 -18 15 -29 13 -18 14 -18 8 4 -5 22 -23 41 -23 25z"/>
<path d="M6550 2700 c0 -7 3 -10 7 -7 3 4 3 10 0 14 -4 3 -7 0 -7 -7z"/>
<path d="M6560 2675 c0 -5 5 -17 10 -25 5 -8 10 -10 10 -5 0 6 -5 17 -10 25 -5 8 -10 11 -10 5z"/>
<path d="M6580 2621 c0 -6 4 -13 10 -16 6 -3 7 1 4 9 -7 18 -14 21 -14 7z"/>
<path d="M4306 2424 c-11 -8 -40 -14 -65 -14 -25 0 -71 -7 -101 -15 -30 -8 -82 -15 -115 -15 -109 -1 -211 -30 -328 -95 -59 -33 -128 -74 -155 -90 l-47 -31 1 -109 c1 -128 25 -259 115 -615 71 -282 87 -325 142 -378 51 -49 82 -62 150 -61 69 0 129 26 192 82 43 38 63 67 107 160 47 97 60 137 90 282 20 94 39 189 42 212 8 55 6 585 -2 650 -7 49 -8 51 -26 37z"/>
<path d="M6480 2420 c0 -7 3 -10 7 -7 3 4 3 10 0 14 -4 3 -7 0 -7 -7z"/>
<path d="M6700 2291 c0 -6 4 -13 10 -16 6 -3 7 1 4 9 -7 18 -14 21 -14 7z"/>
<path d="M6750 2140 c0 -7 3 -10 7 -7 3 4 3 10 0 14 -4 3 -7 0 -7 -7z"/>
<path d="M6760 2100 c0 -7 3 -10 7 -7 3 4 3 10 0 14 -4 3 -7 0 -7 -7z"/>
<path d="M6780 1960 c0 -7 3 -10 7 -7 3 4 3 10 0 14 -4 3 -7 0 -7 -7z"/>
<path d="M6791 1904 c0 -11 3 -14 6 -6 3 7 2 16 -1 19 -3 4 -6 -2 -5 -13z"/>
</g>
<g id="layer109" fill="#ffffff" stroke="none">
<path d="M0 5000 l0 -5000 5000 0 5000 0 0 5000 0 5000 -5000 0 -5000 0 0 -5000z m5545 4254 c66 -9 127 -16 135 -16 8 -1 20 -5 26 -9 6 -5 28 -11 48 -14 21 -2 44 -9 50 -14 7 -6 37 -17 67 -25 30 -8 88 -29 129 -46 89 -38 179 -69 200 -70 8 0 26 -9 40 -20 30 -24 40 -25 40 -5 0 12 16 8 81 -15 44 -17 93 -30 108 -30 19 0 38 -11 58 -33 59 -65 66 -83 70 -177 2 -48 10 -107 18 -130 8 -23 22 -83 30 -133 14 -83 69 -242 101 -292 13 -21 51 -121 110 -290 35 -100 139 -322 197 -418 134 -224 141 -233 131 -165 -8 50 -48 137 -104 223 -21 33 -52 94 -69 135 -16 41 -48 107 -70 145 -48 85 -226 609 -272 800 -5 22 -18 57 -29 77 -20 35 -49 192 -39 202 3 3 32 -5 64 -19 56 -22 60 -27 71 -67 6 -24 17 -54 24 -68 8 -14 19 -47 26 -75 29 -119 57 -209 104 -345 28 -80 62 -181 75 -225 30 -99 62 -176 98 -236 15 -25 42 -84 61 -131 18 -47 46 -105 63 -129 51 -75 93 -167 110 -242 9 -40 25 -90 36 -112 12 -22 24 -65 28 -95 4 -30 10 -74 14 -97 5 -27 2 -73 -8 -125 -9 -46 -26 -137 -37 -203 -12 -66 -28 -134 -37 -152 -14 -31 -14 -33 50 -141 90 -151 111 -195 146 -300 40 -121 48 -176 56 -364 8 -181 -1 -253 -52 -437 -39 -140 -54 -176 -83 -191 -34 -18 -63 5 -57 43 6 37 31 137 53 216 25 85 45 250 39 321 -3 36 -8 89 -10 118 -17 200 -53 300 -194 537 -39 66 -71 124 -71 129 0 5 -2 7 -5 4 -3 -3 13 -46 36 -94 22 -49 49 -111 59 -139 10 -27 40 -97 68 -155 74 -157 82 -193 82 -374 0 -250 -45 -518 -98 -578 -21 -25 -67 -23 -86 4 l-15 21 -30 -31 c-16 -18 -34 -32 -40 -32 -6 0 -15 -9 -21 -19 -5 -11 -19 -23 -30 -26 -17 -5 -18 -10 -9 -27 8 -14 10 -63 6 -147 -5 -137 -23 -205 -87 -331 -74 -148 -182 -268 -268 -300 -30 -11 -63 -18 -73 -15 -24 8 -42 41 -34 64 5 16 0 15 -46 -7 -47 -24 -54 -25 -78 -11 -14 8 -30 25 -36 37 -8 19 -15 21 -40 15 -16 -4 -69 -7 -117 -5 -79 1 -120 8 -187 28 -21 6 -22 5 -13 -13 6 -11 14 -44 17 -74 4 -30 29 -121 56 -204 26 -82 64 -202 83 -265 44 -146 117 -355 140 -399 10 -19 44 -109 77 -200 55 -158 106 -287 149 -376 67 -141 105 -232 130 -315 16 -52 53 -167 84 -255 30 -88 58 -185 61 -215 4 -30 13 -92 21 -137 7 -45 11 -108 9 -140 -2 -32 -7 -105 -10 -163 -8 -137 -54 -323 -100 -405 -38 -69 -164 -195 -195 -195 -10 0 -23 7 -28 15 -7 14 -11 13 -27 -5 -22 -24 -77 -27 -95 -5 -17 21 -35 19 -83 -9 -36 -21 -56 -25 -132 -26 -118 -1 -144 5 -245 56 -89 45 -220 143 -231 172 -4 9 -18 28 -31 42 -14 14 -28 35 -32 47 -4 12 -19 32 -33 43 -30 23 -21 7 -165 295 -122 246 -122 246 -138 297 -6 20 -17 41 -24 48 -8 6 -17 26 -20 44 -4 18 -15 41 -26 51 -11 10 -20 26 -20 37 0 10 -9 26 -20 35 -11 10 -20 23 -20 29 0 7 -15 43 -34 80 -18 38 -43 101 -56 139 -12 39 -26 75 -30 80 -3 6 -7 19 -7 30 -2 24 -39 136 -59 174 -8 14 -14 34 -14 43 0 9 -4 20 -10 23 -5 3 -10 15 -10 25 0 11 -11 44 -25 75 -14 31 -23 59 -21 64 3 5 -1 14 -9 21 -8 7 -15 21 -15 31 0 17 -52 145 -95 234 -19 39 -45 114 -43 123 4 12 -43 142 -53 148 -6 3 -9 -52 -7 -148 5 -276 -13 -1120 -27 -1278 -8 -85 -17 -191 -20 -235 -21 -267 -59 -447 -130 -606 -48 -109 -83 -161 -203 -303 -92 -108 -114 -124 -144 -104 -21 14 -28 13 -86 -13 -84 -38 -114 -38 -145 2 -21 27 -27 30 -45 20 -24 -13 -114 -8 -156 8 -54 21 -216 147 -216 168 0 6 -7 17 -16 24 -15 13 -37 53 -39 74 -3 26 -18 81 -24 90 -4 6 -8 23 -9 39 -1 16 -7 35 -13 42 -6 7 -8 17 -5 22 6 9 -39 186 -52 206 -4 6 -7 18 -7 26 -1 32 -18 106 -27 117 -5 7 -7 17 -3 23 4 6 1 17 -5 25 -6 8 -9 19 -5 25 3 5 3 16 -1 22 -5 7 -9 32 -11 56 -1 24 -7 50 -13 58 -7 7 -9 17 -6 22 3 5 1 45 -4 88 -10 88 -22 269 -21 326 0 20 -4 40 -10 43 -5 4 -7 21 -3 40 3 19 2 40 -2 47 -9 15 -12 48 -18 268 -3 91 -8 183 -11 205 -3 22 -7 81 -10 130 -3 50 -8 101 -12 115 -3 14 -7 48 -9 75 -3 53 -10 108 -14 113 -8 7 -21 206 -20 307 0 39 -4 122 -10 185 -14 155 -20 231 -21 255 -1 11 -5 70 -10 130 -10 110 -11 131 -23 345 -4 63 -11 130 -16 147 -4 18 -6 41 -3 51 2 10 -1 68 -7 128 -6 60 -13 141 -15 179 -3 39 -7 102 -10 140 -2 39 -7 104 -9 145 -4 68 -8 133 -20 305 -3 33 -6 71 -7 85 -2 27 -35 271 -45 335 -4 22 -11 45 -16 52 -5 7 -7 16 -4 21 5 8 -8 70 -21 102 -4 8 -8 20 -9 25 -1 6 -3 12 -4 15 -1 3 -4 29 -6 59 -2 30 -9 59 -14 66 -6 7 -10 17 -9 21 1 5 0 14 -1 19 -9 40 -13 427 -5 448 4 10 5 38 3 62 -3 24 -2 47 3 52 5 5 10 35 11 67 1 31 6 60 10 62 4 3 5 11 2 18 -3 8 -1 17 5 20 6 4 8 13 5 20 -3 8 0 17 5 21 6 3 9 11 5 16 -3 5 -1 15 4 22 12 16 52 136 52 158 0 9 11 33 25 53 14 20 25 45 25 55 0 33 33 126 51 144 10 9 16 23 13 31 -3 8 -1 17 5 21 6 3 11 14 11 23 0 9 11 27 24 39 31 30 145 326 137 357 -1 5 5 16 12 25 22 25 70 188 60 204 -2 4 1 14 7 22 7 8 9 22 6 31 -4 9 -2 22 3 28 9 12 26 85 22 100 -1 4 3 14 9 20 5 7 7 16 3 19 -3 4 0 13 7 21 6 9 13 32 14 53 1 21 4 43 8 48 10 17 37 113 32 118 -2 2 2 17 10 32 8 16 13 32 10 37 -7 11 36 79 46 73 4 -3 20 9 35 27 30 36 72 61 86 52 6 -3 16 -1 23 5 8 7 18 11 22 10 5 -1 22 3 37 9 16 7 32 10 37 7 4 -2 22 2 39 11 17 8 35 13 41 9 5 -3 16 -3 23 2 6 4 39 9 72 10 98 3 109 4 122 15 7 5 17 7 23 3 6 -4 19 -4 28 0 9 4 39 9 65 11 27 1 54 8 62 14 8 7 19 9 24 6 5 -4 12 -2 15 2 3 5 25 9 50 10 25 1 78 9 118 18 129 28 242 42 293 37 28 -3 65 -1 83 4 64 16 528 14 657 -3z"/>
<path d="M4765 9128 c-66 -4 -127 -11 -135 -15 -8 -3 -28 -7 -45 -9 -16 -1 -43 -8 -60 -15 -16 -7 -41 -13 -55 -15 -14 -1 -68 -10 -120 -19 -52 -9 -117 -18 -145 -21 -27 -3 -84 -13 -125 -21 -41 -8 -97 -17 -125 -20 -27 -2 -84 -13 -125 -24 -41 -11 -94 -24 -117 -30 -24 -6 -48 -20 -56 -32 -17 -26 -38 -108 -31 -119 3 -4 2 -14 -3 -20 -4 -7 -8 -17 -8 -23 -1 -5 -4 -17 -7 -25 -7 -19 -49 -207 -54 -244 -2 -15 -8 -34 -15 -42 -6 -7 -8 -18 -4 -24 4 -6 2 -16 -3 -23 -13 -16 -32 -99 -26 -109 3 -5 1 -14 -4 -21 -15 -19 -92 -249 -86 -258 2 -4 0 -16 -5 -26 -22 -39 -52 -116 -54 -136 -1 -12 -12 -36 -24 -54 -13 -17 -23 -38 -23 -46 0 -8 -6 -20 -13 -26 -8 -6 -20 -30 -27 -53 -7 -24 -19 -48 -26 -54 -14 -11 -36 -93 -29 -105 3 -3 -8 -31 -24 -60 -35 -64 -73 -177 -65 -191 3 -5 1 -15 -5 -22 -19 -23 -43 -149 -46 -244 -2 -52 -6 -96 -9 -100 -10 -10 -7 -280 4 -287 5 -3 7 -19 3 -35 -3 -17 0 -36 7 -45 6 -8 9 -19 6 -24 -4 -5 -2 -13 4 -16 6 -4 8 -15 5 -24 -6 -18 20 -154 32 -175 4 -6 8 -23 9 -38 1 -15 5 -35 9 -45 4 -10 9 -37 10 -59 1 -23 6 -47 10 -55 5 -7 9 -36 11 -66 1 -29 7 -60 14 -68 6 -8 9 -18 6 -23 -3 -5 0 -49 6 -98 10 -80 15 -92 42 -116 17 -15 36 -27 43 -28 7 0 16 -6 20 -14 4 -8 30 -26 58 -40 27 -15 52 -30 55 -34 8 -11 107 -82 114 -82 4 0 23 -16 43 -36 20 -20 55 -45 79 -55 23 -11 44 -23 46 -27 5 -11 135 -102 147 -102 5 0 14 -6 18 -14 10 -17 140 -96 159 -96 7 0 17 -6 21 -14 4 -7 41 -30 81 -51 39 -21 72 -42 72 -47 0 -4 6 -8 13 -8 8 0 27 -7 44 -15 16 -8 43 -16 59 -17 16 -1 34 -5 39 -9 6 -5 37 -11 68 -13 32 -3 86 -10 120 -15 34 -6 103 -13 152 -17 50 -3 119 -12 155 -19 35 -8 68 -11 73 -8 4 2 13 0 20 -5 13 -11 122 -11 132 0 4 4 1 23 -6 43 -11 28 -11 40 -1 55 7 11 12 28 12 39 0 21 40 65 99 109 20 15 40 33 44 39 4 7 14 13 21 13 8 0 40 12 72 27 33 15 68 28 79 29 11 1 43 13 70 25 51 24 58 26 86 28 9 0 33 12 53 26 20 14 46 25 56 25 31 0 24 26 -15 57 -19 15 -35 33 -35 38 0 15 -73 85 -88 85 -6 0 -16 9 -22 20 -6 11 -22 23 -36 26 -13 3 -29 15 -35 25 -5 11 -14 19 -19 19 -5 0 -32 23 -59 50 -29 29 -63 53 -81 56 -16 4 -46 22 -66 41 -78 73 -158 94 -344 89 -116 -3 -247 -27 -315 -56 -11 -4 -52 -16 -91 -26 -61 -15 -77 -15 -103 -4 -36 15 -42 47 -12 74 23 21 167 72 246 87 33 7 65 16 72 21 7 5 16 7 21 5 10 -7 164 13 177 23 6 4 44 3 85 -2 41 -5 91 -11 110 -12 19 -2 48 -8 64 -15 22 -9 32 -9 40 -1 8 9 2 19 -21 39 -18 15 -33 35 -33 44 0 9 -4 17 -9 17 -12 0 -41 57 -41 81 0 10 -4 20 -9 24 -14 8 -41 65 -41 85 0 10 -7 23 -15 30 -9 7 -14 19 -11 26 3 7 -1 18 -9 24 -7 6 -14 19 -13 28 0 9 -7 55 -15 100 -9 55 -11 98 -6 125 29 148 41 195 54 221 23 44 20 49 -27 42 -24 -4 -63 -9 -88 -11 -25 -2 -65 -6 -90 -8 -25 -3 -74 -8 -110 -11 -70 -6 -172 -39 -191 -62 -6 -8 -20 -14 -30 -14 -10 0 -20 -4 -24 -9 -3 -6 -13 -9 -23 -9 -24 1 -189 -50 -234 -73 -21 -11 -42 -28 -49 -40 -11 -21 -36 -22 -101 -7 -24 6 -24 7 -31 56 -4 35 -1 47 18 68 24 26 122 78 167 88 15 3 40 11 55 18 15 6 41 13 57 15 16 2 45 12 63 23 19 11 38 18 43 15 4 -2 19 4 33 15 14 11 31 20 39 20 7 0 22 6 33 13 11 7 35 14 54 15 19 2 40 7 47 13 7 6 17 8 22 5 5 -3 60 1 123 9 63 8 163 17 223 20 60 3 117 10 126 15 9 5 27 6 38 3 12 -3 29 0 37 7 8 6 19 9 24 6 21 -14 211 41 226 64 3 5 14 10 24 10 24 0 213 93 230 113 7 10 19 17 25 17 6 0 43 13 81 29 100 42 104 43 163 45 33 1 59 -5 71 -14 25 -19 32 -72 11 -75 -24 -5 -94 -36 -110 -50 -8 -7 -22 -12 -31 -12 -18 0 -131 -66 -149 -88 -7 -8 -19 -15 -27 -15 -16 0 -91 -36 -113 -55 -8 -7 -27 -15 -42 -19 -16 -3 -28 -10 -28 -15 0 -10 35 -21 67 -21 12 0 34 -11 49 -25 15 -14 33 -25 41 -25 7 0 16 -7 19 -15 4 -8 12 -15 19 -15 7 0 20 -12 30 -26 16 -25 29 -25 30 -1 2 23 57 132 78 155 12 13 21 27 21 30 -1 4 34 19 77 33 44 14 82 29 86 32 3 4 17 4 30 1 13 -4 29 -1 37 5 7 6 21 9 30 5 9 -3 22 -2 29 3 18 15 158 -2 211 -26 124 -54 286 -199 362 -321 20 -33 41 -60 45 -60 5 0 15 -15 22 -32 8 -18 25 -44 39 -58 13 -14 27 -33 31 -42 3 -10 11 -18 16 -18 11 0 23 29 16 40 -3 4 2 20 10 36 7 15 12 31 9 36 -3 4 -2 14 3 20 4 7 8 47 9 88 3 96 8 142 16 155 3 6 6 64 6 130 l0 120 -40 70 c-21 39 -49 78 -60 88 -12 10 -30 36 -40 58 -9 22 -31 54 -48 70 -16 17 -33 43 -36 57 -11 50 -27 83 -45 93 -11 5 -19 16 -19 23 0 8 -7 16 -15 20 -8 3 -15 12 -15 21 0 13 -24 63 -59 125 -4 8 -20 40 -35 70 -15 30 -36 71 -46 90 -29 55 -91 191 -106 235 -8 22 -17 47 -21 55 -3 8 -7 24 -9 35 -7 64 -18 121 -26 131 -4 6 -6 19 -2 28 3 9 3 24 -1 34 -5 9 -9 31 -11 47 -6 62 -12 92 -33 162 -22 71 -93 190 -121 203 -8 4 -26 12 -39 19 -42 23 -275 118 -326 134 -27 9 -75 19 -105 22 -30 3 -68 9 -85 15 -16 5 -52 12 -80 16 -74 10 -631 11 -770 2z"/>
<path d="M6491 8424 c0 -11 3 -14 6 -6 3 7 2 16 -1 19 -3 4 -6 -2 -5 -13z"/>
<path d="M6495 8381 c-3 -5 -1 -12 5 -16 5 -3 10 1 10 9 0 18 -6 21 -15 7z"/>
<path d="M6505 8331 c-3 -5 -1 -12 5 -16 5 -3 10 1 10 9 0 18 -6 21 -15 7z"/>
<path d="M6610 8102 c0 -7 10 -26 21 -41 12 -16 18 -34 15 -40 -4 -6 -2 -11 4 -11 6 0 8 -4 5 -10 -3 -5 -2 -10 4 -10 5 0 13 -9 16 -21 4 -11 9 -19 11 -17 6 6 -47 132 -62 148 -10 10 -14 11 -14 2z"/>
<path d="M7215 7045 c6 -218 -3 -332 -32 -390 -14 -28 -14 -29 2 -14 22 22 45 118 45 194 0 33 7 85 15 115 8 30 15 70 15 89 0 50 -20 151 -36 186 -13 27 -14 6 -9 -180z"/>
<path d="M6146 7013 c-4 -4 -24 -8 -44 -9 -110 -6 -174 -32 -197 -81 -8 -17 -15 -38 -15 -46 0 -9 -4 -19 -10 -22 -5 -3 -10 -15 -10 -26 0 -10 -5 -28 -12 -38 -10 -17 -2 -29 69 -103 45 -45 93 -98 108 -115 33 -41 45 -42 45 -3 0 23 7 33 29 45 17 8 36 24 45 36 14 21 38 37 81 57 135 63 175 77 247 88 64 9 84 24 69 52 -6 12 -17 22 -24 22 -7 0 -24 13 -40 29 -15 15 -52 40 -82 56 -30 15 -55 31 -55 35 0 21 -185 41 -204 23z"/>
<path d="M5200 6845 c-19 -13 -43 -24 -52 -24 -22 -1 -60 -51 -53 -69 3 -8 1 -20 -4 -26 -12 -14 -31 -118 -31 -169 0 -48 25 -93 59 -106 49 -19 113 -32 128 -26 9 3 22 0 29 -6 9 -7 54 -10 136 -7 122 5 123 5 203 48 44 24 84 49 88 57 4 7 16 13 26 13 11 0 21 7 25 15 3 8 12 15 19 15 8 0 22 9 33 21 19 21 19 21 -28 64 -27 24 -48 48 -48 53 0 31 -189 159 -227 153 -6 -1 -14 3 -18 9 -4 6 -55 10 -128 9 -112 0 -125 -2 -157 -24z"/>
<path d="M6585 6703 c-16 -3 -34 -8 -39 -13 -4 -5 -23 -6 -41 -3 -36 6 -113 -16 -185 -52 -25 -13 -81 -57 -124 -98 l-79 -75 25 -23 c14 -13 28 -34 32 -46 4 -11 13 -24 21 -27 8 -3 15 -13 15 -22 0 -21 48 -106 67 -117 7 -4 13 -15 13 -22 0 -8 9 -24 20 -35 11 -11 20 -28 20 -38 0 -10 14 -34 30 -52 17 -18 30 -41 30 -51 0 -9 6 -19 14 -22 7 -3 16 -18 19 -34 3 -15 19 -48 36 -73 17 -25 31 -52 31 -61 0 -9 9 -24 20 -34 11 -10 20 -28 20 -40 0 -13 7 -25 15 -29 8 -3 15 -12 15 -21 0 -19 131 -255 141 -255 10 0 44 -65 52 -101 4 -14 25 -48 46 -76 40 -50 41 -50 112 -57 47 -4 76 -3 85 5 7 6 18 8 24 4 17 -10 104 81 96 101 -4 9 -2 22 4 29 6 7 12 30 14 51 1 21 6 47 10 56 13 30 2 360 -14 393 -8 17 -14 35 -15 40 0 6 -4 16 -8 23 -5 6 -6 16 -3 21 3 4 -6 23 -19 41 -14 19 -25 41 -25 50 0 9 -5 21 -11 27 -5 5 -11 22 -13 36 -1 14 -8 32 -15 40 -6 8 -10 19 -9 25 2 6 -12 21 -31 34 -24 15 -50 51 -80 110 -75 141 -109 196 -131 208 -11 6 -20 15 -20 21 0 22 -105 169 -120 168 -8 -1 -28 -4 -45 -6z"/>
<path d="M5865 6470 c-22 -21 -48 -39 -57 -40 -9 0 -29 -11 -45 -24 -33 -28 -106 -66 -126 -66 -8 0 -20 -6 -26 -14 -9 -11 -48 -15 -173 -16 -89 0 -165 -3 -170 -6 -5 -3 -15 0 -23 6 -8 7 -22 9 -31 6 -8 -3 -25 1 -37 9 -24 17 -47 20 -47 6 0 -4 11 -25 25 -45 14 -21 23 -41 20 -46 -3 -4 2 -13 10 -20 8 -7 15 -20 15 -29 0 -9 16 -41 35 -71 38 -61 41 -74 23 -113 -9 -18 -18 -25 -30 -21 -18 5 -30 -7 -20 -22 14 -19 111 -85 155 -104 25 -11 47 -27 51 -35 3 -8 11 -15 18 -15 6 0 35 -24 62 -53 28 -29 65 -59 82 -67 17 -8 60 -50 96 -92 36 -42 68 -74 72 -71 3 3 9 -3 13 -13 3 -10 12 -23 20 -27 7 -4 13 -15 13 -23 0 -8 6 -25 14 -37 8 -12 29 -65 46 -117 28 -85 31 -106 29 -200 -1 -58 -5 -109 -8 -115 -3 -5 -11 -30 -16 -55 -7 -30 -17 -48 -32 -56 -31 -15 -123 -101 -123 -114 0 -19 20 -50 33 -50 7 0 39 -14 71 -30 32 -17 65 -30 72 -30 7 0 52 -20 100 -45 47 -25 92 -45 99 -45 7 0 18 -6 25 -14 6 -8 17 -13 24 -10 7 3 19 -2 26 -10 7 -9 16 -13 22 -10 5 3 15 0 23 -6 20 -16 193 -10 200 8 2 6 10 12 18 12 7 0 43 30 78 68 36 37 78 74 94 82 35 18 115 94 115 109 0 5 6 14 14 18 7 4 18 18 25 30 14 28 15 239 0 248 -5 4 -8 12 -6 18 5 15 -17 59 -37 76 -9 8 -16 20 -16 27 0 8 -9 23 -20 34 -11 11 -20 27 -20 35 0 22 -40 98 -56 108 -8 4 -14 16 -14 25 0 9 -16 37 -35 61 -19 24 -35 52 -35 61 0 10 -7 20 -15 24 -8 3 -15 14 -15 25 0 10 -7 21 -15 25 -8 3 -15 12 -15 21 0 22 -40 98 -56 108 -8 4 -14 15 -14 23 0 21 -50 118 -66 127 -8 4 -14 15 -14 23 0 16 -46 93 -65 109 -7 6 -16 23 -19 38 -4 15 -15 35 -26 45 -11 9 -20 24 -20 33 0 9 -7 19 -15 23 -8 3 -15 13 -15 21 0 21 -78 155 -90 155 -5 0 -16 15 -24 34 -8 19 -24 39 -35 46 -12 6 -21 15 -21 21 0 12 -41 69 -50 69 -3 0 -23 -18 -45 -40z"/>
<path d="M7176 6150 c4 -14 8 -36 10 -48 1 -13 10 -32 19 -42 9 -9 15 -21 13 -26 -3 -12 22 -86 34 -101 5 -7 7 -17 4 -22 -4 -5 -2 -12 3 -15 5 -3 9 -50 10 -103 1 -54 6 -102 11 -107 7 -7 10 30 10 100 0 83 -5 124 -19 165 -22 62 -105 236 -95 199z"/>
<path d="M3234 5532 c-4 -26 -2 -117 5 -202 7 -85 14 -180 16 -210 2 -30 7 -82 10 -115 3 -33 7 -96 10 -140 2 -44 7 -111 11 -150 3 -38 6 -79 6 -90 0 -11 4 -67 9 -125 16 -175 30 -342 34 -405 2 -33 7 -82 10 -110 6 -51 11 -132 20 -334 3 -63 9 -119 12 -125 4 -6 7 -43 8 -83 1 -88 12 -104 53 -74 17 11 37 21 45 21 8 0 31 12 52 26 21 14 51 27 67 29 52 7 93 17 105 27 7 5 16 7 20 5 5 -3 40 1 78 9 81 17 395 34 411 22 6 -4 14 -5 17 -1 4 3 13 0 22 -7 9 -7 17 -11 19 -9 7 6 9 296 5 507 -2 107 -1 196 3 198 5 3 8 18 8 33 0 15 9 36 20 46 11 10 20 28 20 40 0 27 16 47 64 79 44 29 84 33 125 12 33 -18 96 -86 105 -114 4 -11 13 -23 21 -26 8 -3 15 -10 15 -17 0 -6 9 -22 20 -36 11 -14 20 -34 20 -43 0 -10 7 -23 15 -30 8 -7 14 -18 13 -24 -3 -15 32 -118 47 -136 6 -8 12 -24 13 -36 0 -12 8 -39 18 -60 10 -21 18 -46 19 -55 4 -30 48 -154 60 -169 7 -8 16 -29 20 -47 3 -17 13 -37 21 -44 8 -6 14 -21 14 -33 0 -12 7 -31 15 -42 8 -10 15 -28 15 -39 0 -11 7 -30 15 -43 9 -12 18 -35 20 -52 6 -51 45 -157 71 -195 13 -20 24 -41 24 -47 0 -11 65 -187 79 -216 15 -30 28 -65 71 -202 24 -74 47 -140 52 -146 5 -7 11 -29 13 -50 3 -22 17 -67 31 -101 22 -52 29 -61 47 -58 12 3 36 20 53 40 17 19 34 35 37 35 3 0 18 11 33 25 15 14 33 25 40 25 7 0 46 16 85 35 40 19 80 35 89 35 9 0 21 5 26 10 6 6 24 12 40 14 42 6 87 18 99 26 9 6 232 6 245 0 6 -3 22 -7 37 -8 7 -1 17 -12 24 -23 9 -17 8 -25 -5 -37 -12 -12 -43 -16 -153 -16 -122 -1 -143 -4 -186 -24 -27 -13 -51 -21 -54 -19 -5 6 -92 -21 -108 -33 -5 -4 -24 -11 -41 -14 -18 -4 -46 -20 -65 -37 -18 -16 -38 -29 -45 -29 -6 0 -14 -7 -18 -15 -3 -8 -12 -15 -21 -15 -8 0 -15 -6 -15 -14 0 -8 -13 -23 -30 -33 -16 -9 -30 -21 -30 -25 0 -9 39 -77 56 -98 6 -8 15 -29 19 -47 3 -18 17 -48 31 -68 13 -20 24 -42 24 -51 0 -19 199 -428 211 -432 5 -2 16 -19 25 -37 8 -18 28 -46 44 -61 16 -16 30 -34 30 -40 0 -7 7 -14 15 -18 8 -3 15 -12 15 -20 0 -7 7 -16 15 -20 8 -3 15 -12 15 -20 0 -7 7 -16 15 -20 8 -3 15 -11 15 -19 0 -15 88 -84 140 -109 40 -20 224 -26 235 -8 3 6 15 10 25 10 10 0 31 13 47 28 33 34 126 197 126 221 0 9 6 24 14 33 8 9 16 35 17 57 1 22 5 43 9 47 11 12 8 112 -4 119 -6 4 -8 14 -5 22 4 9 2 21 -4 28 -6 7 -10 17 -9 21 1 5 0 11 -1 14 -1 3 -3 20 -5 38 -1 18 -11 42 -20 53 -10 10 -15 22 -12 26 4 3 0 17 -8 30 -9 13 -13 28 -10 33 3 5 0 12 -6 15 -5 4 -8 14 -4 22 3 9 -2 24 -11 35 -10 10 -14 21 -11 25 4 3 1 14 -7 22 -8 9 -20 39 -27 66 -7 28 -18 57 -24 65 -6 8 -17 35 -24 60 -7 25 -19 55 -27 68 -8 12 -12 27 -9 32 3 5 0 12 -6 15 -5 4 -8 13 -5 20 2 7 -8 40 -24 72 -15 32 -40 90 -55 128 -36 95 -67 154 -82 159 -7 3 -13 11 -13 18 0 7 -17 46 -39 88 -21 41 -44 93 -51 115 -6 22 -14 47 -18 55 -3 8 -6 22 -7 30 -1 8 -14 33 -29 54 -14 22 -29 51 -32 65 -3 14 -10 34 -15 44 -6 11 -8 21 -5 24 3 3 -4 28 -15 57 -12 28 -47 128 -79 222 -32 94 -64 182 -71 195 -7 13 -14 34 -16 47 -1 18 -36 137 -61 212 -3 8 -6 33 -8 54 -2 36 -18 111 -32 146 -3 8 -7 35 -9 59 -2 25 -8 50 -13 56 -6 7 -8 20 -4 29 3 9 1 23 -6 31 -6 8 -9 19 -5 25 3 5 3 16 -2 23 -4 6 -8 61 -8 121 l0 109 -30 10 c-16 5 -44 15 -62 23 -17 8 -41 14 -53 14 -12 0 -45 10 -73 23 -72 32 -248 86 -347 106 -108 22 -457 70 -550 76 -52 3 -113 8 -135 11 -22 3 -60 7 -85 8 -77 6 -108 20 -252 117 -65 43 -124 79 -131 79 -7 0 -20 9 -30 20 -9 11 -25 20 -34 20 -10 0 -31 14 -47 30 -16 16 -38 33 -50 36 -12 4 -31 17 -43 29 -31 30 -239 175 -252 175 -6 0 -15 8 -20 19 -6 10 -26 26 -46 35 -19 9 -35 20 -35 25 0 9 -77 65 -102 74 -14 5 -18 -3 -24 -41z m2417 -2076 c12 -8 26 -13 31 -10 4 3 20 -4 34 -15 15 -12 34 -21 43 -21 10 0 30 -13 46 -30 27 -28 28 -30 11 -55 -16 -25 -22 -26 -69 -21 -73 7 -78 9 -112 31 -34 23 -87 28 -264 25 -41 0 -80 -5 -87 -11 -6 -5 -16 -9 -20 -7 -17 4 -52 -13 -58 -27 -3 -8 -14 -15 -23 -15 -10 0 -27 -6 -38 -13 -24 -16 -62 -19 -70 -7 -3 5 -8 25 -10 44 -5 34 -3 36 63 72 37 20 79 45 94 55 15 10 33 17 40 14 7 -3 25 -2 40 3 15 4 95 6 177 5 117 -1 155 -5 172 -17z"/>
<path d="M5700 5285 c-33 -19 -27 -17 -245 -90 -146 -49 -185 -65 -185 -76 0 -4 -15 -15 -32 -24 -37 -17 -76 -70 -85 -116 -3 -16 -10 -32 -14 -35 -19 -11 -7 -22 39 -33 26 -7 70 -19 98 -26 28 -8 60 -15 70 -15 11 0 24 -4 29 -9 6 -5 37 -16 70 -26 32 -9 68 -23 78 -30 11 -7 25 -11 32 -9 7 3 16 1 20 -5 11 -19 22 -12 28 18 6 29 15 38 86 84 58 38 83 97 88 212 4 87 2 105 -16 139 -11 21 -18 43 -15 47 8 14 -18 10 -46 -6z"/>
<path d="M6976 5112 c-3 -5 -2 -19 1 -32 6 -22 7 -23 14 -4 4 10 8 25 8 32 1 14 -15 16 -23 4z"/>
<path d="M6781 4519 c-52 -54 -88 -99 -80 -99 17 0 137 125 162 168 10 18 17 32 15 31 -2 -1 -45 -46 -97 -100z"/>
<path d="M6595 4534 l-16 -25 25 16 c14 10 23 21 20 26 -8 13 -10 12 -29 -17z"/>
<path d="M5953 4483 c4 -3 10 -3 14 0 3 4 0 7 -7 7 -7 0 -10 -3 -7 -7z"/>
<path d="M4427 4073 c-11 -10 -8 -111 3 -118 6 -4 10 18 10 59 0 66 -1 72 -13 59z"/>
<path d="M5867 4013 c-4 -7 -3 -14 2 -18 6 -3 8 -12 4 -20 -3 -8 0 -15 7 -15 6 0 9 -4 5 -9 -3 -5 -1 -12 5 -16 13 -8 12 11 -4 54 -7 21 -15 30 -19 24z"/>
<path d="M4612 3748 c1 -168 3 -184 7 -95 6 110 12 126 54 140 6 2 -1 27 -16 59 -15 31 -27 64 -27 72 0 8 -4 18 -10 21 -7 4 -9 -64 -8 -197z"/>
<path d="M4430 3930 c0 -7 3 -10 7 -7 3 4 3 10 0 14 -4 3 -7 0 -7 -7z"/>
<path d="M5930 3810 c0 -7 3 -10 7 -7 3 4 3 10 0 14 -4 3 -7 0 -7 -7z"/>
<path d="M6050 3450 c0 -7 3 -10 7 -7 3 4 3 10 0 14 -4 3 -7 0 -7 -7z"/>
<path d="M4017 3404 c-3 -3 -44 -7 -90 -8 -52 -1 -91 -7 -101 -15 -8 -7 -20 -10 -25 -7 -9 6 -91 -8 -121 -21 -8 -3 -28 -7 -43 -8 -15 -2 -36 -9 -45 -18 -9 -8 -30 -18 -47 -21 -16 -4 -49 -28 -72 -52 -24 -24 -47 -44 -53 -44 -6 0 -6 -9 1 -27 5 -14 7 -46 3 -69 -3 -24 -3 -52 1 -61 13 -28 19 -120 30 -428 2 -66 6 -142 9 -170 3 -27 6 -59 7 -70 4 -73 11 -94 27 -85 9 4 31 14 49 20 17 7 34 18 37 26 3 8 12 14 20 14 8 0 27 11 42 25 15 14 33 25 41 25 8 0 27 7 43 15 50 26 227 64 325 69 11 1 26 5 33 9 6 5 16 6 21 2 5 -3 12 -1 15 4 9 14 155 4 181 -13 l23 -15 7 93 c4 51 2 159 -4 242 -7 82 -12 158 -13 169 0 11 -4 57 -9 101 -5 45 -10 122 -10 170 0 49 -3 104 -6 122 l-5 32 -132 0 c-73 0 -135 -3 -139 -6z"/>
<path d="M6270 3380 c0 -7 3 -10 7 -7 3 4 3 10 0 14 -4 3 -7 0 -7 -7z"/>
<path d="M6300 3304 c0 -6 7 -19 16 -30 14 -18 14 -18 3 6 -14 31 -19 36 -19 24z"/>
<path d="M4455 3140 c-3 -5 -1 -18 4 -27 9 -16 10 -14 11 10 0 28 -5 34 -15 17z"/>
<path d="M6430 2990 c0 -7 3 -10 7 -7 3 4 3 10 0 14 -4 3 -7 0 -7 -7z"/>
<path d="M4623 2815 c0 -22 2 -30 4 -17 2 12 2 30 0 40 -3 9 -5 -1 -4 -23z"/>
<path d="M4623 2545 c0 -22 2 -30 4 -17 2 12 2 30 0 40 -3 9 -5 -1 -4 -23z"/>
<path d="M4306 2424 c-11 -8 -41 -14 -66 -14 -26 0 -50 -3 -54 -7 -8 -9 -15 -10 -136 -19 -47 -4 -90 -11 -97 -16 -7 -5 -17 -7 -23 -3 -6 4 -17 1 -25 -5 -8 -6 -19 -9 -25 -5 -6 4 -17 1 -25 -5 -8 -6 -19 -9 -25 -5 -5 3 -22 -3 -36 -14 -15 -12 -35 -21 -44 -21 -10 0 -20 -7 -24 -15 -3 -8 -12 -15 -19 -15 -20 0 -110 -51 -120 -67 -4 -7 -17 -13 -27 -13 -11 0 -20 -5 -20 -10 0 -6 -9 -14 -20 -18 -18 -7 -21 -18 -24 -97 -2 -50 -1 -94 2 -100 3 -5 7 -29 8 -52 1 -24 7 -49 13 -57 6 -7 9 -21 5 -29 -3 -9 -2 -22 2 -29 5 -7 10 -28 11 -46 1 -19 7 -40 13 -47 7 -8 9 -19 5 -24 -7 -12 22 -131 37 -149 6 -7 8 -15 6 -18 -7 -7 21 -115 34 -131 5 -7 7 -16 4 -21 -5 -8 8 -70 21 -102 4 -8 7 -19 8 -25 0 -5 4 -16 9 -23 4 -7 6 -16 3 -19 -12 -11 35 -95 75 -137 50 -52 81 -66 148 -66 53 0 130 25 143 47 4 7 14 13 20 13 27 0 95 87 127 160 17 41 43 98 56 126 13 28 26 69 28 90 1 22 6 46 10 55 4 9 8 31 9 50 1 19 6 40 10 47 5 6 5 17 2 22 -4 6 -1 18 6 26 17 21 22 77 25 299 2 105 4 204 5 220 2 38 -9 277 -13 280 -2 2 -12 -3 -22 -11z"/>
</g>


</svg>